<svg width="336" height="296" viewBox="0 0 336 296" fill="none" xmlns="http://www.w3.org/2000/svg">
<g opacity="0.24">
<path d="M48.9721 321.791C40.3958 347.886 35.5403 375.188 38.5027 400.284C40.8917 420.532 48.3738 438.255 59.6195 451.833C72.361 467.216 89.459 477.51 108.188 482.378C127.605 487.423 148.961 485.108 170.118 478.519C221.295 462.578 268.115 423.977 316.092 393.629C341.081 377.822 366.84 364.145 393.217 357.111C417.593 350.611 441.854 348.716 466.244 341.285C488 334.658 510.139 322.604 526.597 300.955C539.91 283.448 548.274 261.965 551.918 240.755C555.674 218.904 554.599 197.022 548.691 178.349C541.917 156.937 529.714 139.533 514.98 125.992C499.811 112.052 481.969 102.049 463.116 94.7343C443.399 87.0848 422.444 82.364 400.794 80.5137C357.315 76.7972 311.024 84.6291 266.086 103.717C245.355 112.523 224.949 123.857 205.08 136.623C185.868 148.967 167.109 162.878 149.242 178.528C114.861 208.642 83.0335 245.86 61.9653 289.734C56.9532 300.167 52.6029 310.882 48.9721 321.791C48.4332 323.411 50.4011 323.916 50.94 322.296C66.0247 276.985 93.6297 236.765 125.637 203.799C158.257 170.203 195.321 143.417 233.187 122.405C276.282 98.4919 321.4 84.9095 365.19 82.5395C408.548 80.1926 451.18 88.4406 487.02 108.985C519.784 127.766 548.722 159.978 551.68 207.604C552.974 228.443 549.51 251.183 540.744 272.201C531.148 295.211 515.275 313.979 496.004 325.765C473.525 339.514 449.401 343.459 426.315 347.673C414.634 349.806 402.933 351.934 391.219 355.17C378.637 358.644 366.121 363.624 353.784 369.656C304.414 393.795 259.28 433.141 210.315 458.874C186.795 471.235 162.313 480.573 138.344 482.342C119.273 483.749 101.384 479.347 85.7412 470.345C69.8154 461.179 56.3121 447.165 48.2358 428.421C40.2474 409.88 38.1566 387.577 41.0466 364.566C42.8234 350.422 46.3539 336.241 50.9383 322.293C51.4729 320.675 49.5049 320.169 48.9721 321.791Z" fill="#007BFF"/>
<path d="M72.6308 432.068C82.8245 444.986 96.4008 453.859 111.49 458.57C126.494 463.254 142.779 462.914 159.479 458.925C200.059 449.233 238.05 420.563 275.526 395.201C295.344 381.789 315.55 368.973 336.482 360.228C356.175 352.001 375.866 349.044 395.623 344.463C414.101 340.18 433.4 334.099 450.129 319.635C463.611 307.98 473.852 291.837 479.968 274.193C485.931 256.99 488.073 238.874 486.647 222.26C485.08 203.982 478.778 187.912 469.786 174.749C460.138 160.627 447.463 149.833 433.653 141.476C419.269 132.773 403.522 126.456 387.12 122.294C351.639 113.291 312.726 114.778 273.933 126.249C233.4 138.233 192.925 161.629 156.652 191.949C123.96 219.277 93.8906 253.906 74.8531 295.503C57.1532 334.177 47.897 380.214 62.1961 414.278C64.9569 420.85 68.4976 426.792 72.6308 432.068C73.4653 433.134 75.201 431.196 74.3632 430.127C65.4975 418.808 59.7188 404.359 57.9171 387.853C55.6771 367.329 59.4374 344.981 66.1809 323.62C79.6045 281.101 105.359 243.783 135.734 213.782C151.659 198.055 168.754 184.238 186.383 172.126C205.466 159.013 225.275 147.619 245.417 139.033C284.201 122.502 324.235 115.958 361.496 120.275C394.759 124.129 427.418 135.96 452.175 158.501C464.081 169.34 474.01 183.201 479.791 200.223C484.88 215.209 486.191 232.586 483.644 250.348C481.156 267.705 474.904 285.48 464.631 300.388C452.215 318.405 434.98 329.385 417.606 335.681C398.897 342.462 380.13 344.82 361.407 349.515C341.541 354.497 322.158 363.489 303.112 374.843C264.875 397.641 228.773 428.13 189.246 445.977C170.427 454.474 150.912 460.056 132.305 459.528C117.645 459.111 103.735 454.181 91.9646 446.36C85.3844 441.987 79.4525 436.576 74.3632 430.127C73.526 429.063 71.7903 431.001 72.6308 432.068Z" fill="#007BFF"/>
<path d="M88.1194 415.396C96.7507 425.663 107.987 432.675 120.425 436.334C132.853 439.99 146.332 439.542 160.078 436.192C192.93 428.183 223.589 405.181 253.855 384.301C269.807 373.296 286.057 362.73 302.92 355.383C318.648 348.532 334.47 345.697 350.296 341.187C365.197 336.941 380.479 330.722 393.337 317.901C403.573 307.693 411.086 294.039 415.395 279.851C419.729 265.581 421.053 250.741 419.359 237.274C417.49 222.433 411.741 209.508 403.961 199.084C395.694 188.009 385.16 179.58 373.845 172.902C362.03 165.927 349.249 160.728 335.823 157.42C307.144 150.355 275.776 152.107 244.512 161.926C211.764 172.21 179.016 191.67 150.079 217.126C124.096 239.984 100.789 268.745 86.7219 302.894C73.3874 335.265 66.7571 373.083 79.0363 400.697C81.4617 406.157 84.5394 411.067 88.1194 415.396C88.9785 416.433 90.7184 414.488 89.8541 413.444C82.1863 404.172 77.1144 392.178 75.3809 378.367C73.2951 361.755 75.907 343.638 80.8474 326.119C85.6218 309.187 92.6312 292.638 101.695 277.375C110.918 261.843 122.121 247.77 134.206 235.194C146.619 222.277 160.035 210.896 173.935 200.92C189.276 189.909 205.292 180.406 221.574 173.148C252.827 159.217 285.265 153.249 315.421 156.511C342.418 159.43 368.423 169.286 388.894 186.849C398.727 195.285 407.191 205.986 412.425 219.356C417.167 231.467 418.922 245.48 417.313 260.254C415.773 274.39 411.257 289.023 403.489 301.674C394.452 316.39 381.594 326.412 368.004 332.438C353.038 339.074 337.815 341.643 322.746 345.886C306.856 350.359 291.413 357.704 276.206 366.983C245.329 385.821 216.208 410.672 184.174 425.161C168.835 432.099 153.003 436.625 137.816 436.407C125.752 436.232 114.283 432.412 104.487 426.218C99.0632 422.788 94.1358 418.533 89.8586 413.444C88.9883 412.414 87.2471 414.36 88.1194 415.396Z" fill="#007BFF"/>
<path d="M103.619 398.693C110.676 406.332 119.598 411.495 129.414 414.066C139.236 416.639 149.843 416.12 160.599 413.431C173.001 410.328 185.323 404.407 197.22 397.293C209.31 390.064 220.931 381.38 232.662 373.042C244.769 364.437 257.086 356.1 269.891 350.124C281.595 344.663 293.495 341.906 305.272 337.29C316.349 332.95 327.454 326.526 336.116 315.647C343.352 306.558 348.268 295.419 350.891 284.151C353.518 272.863 353.858 261.295 351.684 251.136C349.195 239.494 343.84 229.765 336.928 221.947C329.854 213.945 321.344 207.677 312.336 202.674C303.183 197.589 293.285 193.928 282.905 191.794C260.592 187.203 236.239 189.876 212.283 198.644C187.783 207.61 163.447 223.165 142.312 243.493C122.994 262.074 106.394 285.349 97.5687 312.149C89.1327 337.765 85.6869 366.659 95.8963 387.305C98.006 391.57 100.604 395.377 103.619 398.693C104.517 399.681 106.264 397.723 105.357 396.725C99.094 389.836 94.7396 380.768 92.8828 370.199C90.6933 357.733 91.894 344.086 94.7454 330.547C97.5111 317.419 101.852 304.275 108.069 292.031C114.228 279.905 122.085 268.754 130.723 258.752C149.414 237.105 172.053 220.108 195.051 208.631C218.781 196.788 243.761 190.893 267.078 192.342C288.153 193.651 307.754 201.029 324.102 213.648C339.379 225.441 351.839 243.455 350.896 268.511C350.484 279.421 347.814 290.985 342.688 301.415C336.943 313.106 328.403 322.29 318.43 328.369C307.481 335.04 295.876 338.016 284.583 341.823C272.461 345.91 260.75 351.756 249.18 359.133C225.765 374.06 203.662 393.162 179.205 404.269C167.326 409.664 155.128 413.155 143.343 413.222C133.845 413.275 124.777 410.605 116.932 406.015C112.693 403.535 108.791 400.447 105.357 396.728C104.453 395.746 102.705 397.704 103.619 398.693Z" fill="#007BFF"/>
<path d="M119.357 382.059C124.889 387.074 131.653 390.321 138.934 391.729C146.364 393.166 154.313 392.451 162.286 390.239C170.992 387.823 179.639 383.607 187.978 378.474C196.271 373.367 204.195 367.169 212.17 361.131C220.421 354.884 228.79 348.697 237.502 343.937C245.292 339.683 253.328 336.489 260.904 331.297C268.144 326.336 274.492 319.413 278.932 310.798C282.971 302.96 285.431 294.251 286.122 285.873C286.849 277.053 285.509 268.739 282.445 261.706C279.124 254.085 274.065 248.077 268.468 242.99C257.772 233.267 244.43 227.506 229.956 226.132C213.605 224.578 195.885 228.421 179.035 236.473C162.659 244.299 146.637 256.244 133.363 271.72C127.321 278.765 121.822 286.606 117.406 295.079C112.734 304.042 109.535 313.527 107.756 323.217C104.363 341.686 104.73 361.002 113.003 374.394C114.808 377.319 116.959 379.85 119.357 382.059C120.337 382.961 121.687 380.593 120.718 379.699C115.86 375.226 112.28 369.086 110.2 361.903C107.875 353.872 107.571 344.853 108.283 335.669C109.004 326.357 110.705 316.85 114.045 307.631C117.253 298.773 121.952 290.367 127.334 282.771C138.566 266.916 152.951 254.287 167.897 245.139C184.424 235.023 202.198 229.165 219.089 228.46C233.622 227.854 247.467 231.432 259.078 239.09C265.025 243.011 270.496 247.948 274.982 253.932C279.447 259.888 282.789 267.165 283.811 275.752C285.635 291.06 280.076 309.886 268.576 321.996C262.053 328.864 254.273 332.917 246.697 336.668C242.853 338.572 239.003 340.446 235.209 342.616C230.991 345.028 226.847 347.743 222.76 350.61C214.731 356.24 206.934 362.482 198.98 368.316C191.123 374.079 183.026 379.221 174.678 383.068C166.387 386.889 157.894 389.422 149.623 389.83C142.444 390.183 135.541 388.724 129.439 385.672C126.297 384.101 123.371 382.107 120.716 379.701C119.731 378.806 118.381 381.173 119.357 382.059Z" fill="#007BFF"/>
<path d="M217.756 279C208.121 261.607 187.731 258.752 169.073 264.682C149.951 270.758 129.28 287.671 121.032 311.636C116.664 324.327 117.068 337.431 121.195 347.741C124.999 357.242 131.75 364.103 140.352 366.975C148.616 369.735 158.186 368.878 167.416 365.227C176.049 361.814 184.012 355.917 191.345 348.467C199.615 340.064 207.382 330.169 213.236 319.251C218.839 308.802 222.754 296.594 220.421 286.065C219.845 283.467 218.919 281.153 217.756 279C217.466 278.465 216.66 278.666 216.227 279.161C215.698 279.763 215.713 280.513 215.999 281.041C225.962 299.48 208.648 325.971 195.046 341.374C188.447 348.845 181.26 355.535 173.274 359.861C164.655 364.527 155.471 366.751 147.106 365.679C138.394 364.564 130.991 359.853 126.095 351.934C120.807 343.384 118.635 331.478 121.088 319.21C123.254 308.37 129.016 298.012 136.014 289.753C143.706 280.676 152.968 273.982 162.492 269.78C180.308 261.918 200.921 261.851 212.54 275.922C213.827 277.48 214.979 279.197 216 281.042C216.692 282.293 218.446 280.245 217.756 279Z" fill="#007BFF"/>
</g>
</svg>
