<?xml version="1.0" encoding="UTF-8"?>
<svg id="Layer_2" data-name="Layer 2" xmlns="http://www.w3.org/2000/svg" viewBox="0 0 951.8 168.27">
  <defs>
    <style>
      .cls-1 {
        fill: #0f62ae;
      }

      .cls-2 {
        fill: #a6a6a6;
      }

      .cls-3 {
        fill: #eb2027;
      }

      .cls-4 {
        fill: #faaf41;
      }
    </style>
  </defs>
  <g id="Layer_1-2" data-name="Layer 1">
    <g>
      <g>
        <path class="cls-1" d="M74.89,37.87l-35.44,19.11c-2.16,1.17-3.49,3.32-3.49,5.65v7.81c0,5.02,5.81,8.16,10.46,5.65l21.51-11.6c4.65-2.51,10.46.63,10.46,5.65v65.78c0,4.97-5.7,8.11-10.35,5.71l-27.28-14.09c-2.22-1.15-3.6-3.34-3.6-5.71v-1.58c0-5.19,6.15-8.3,10.79-5.46l3.34,2.04c4.64,2.84,10.79-.28,10.79-5.46v-18.31c0-5.13-6.03-8.25-10.68-5.53l-19.64,11.5c-4.65,2.72-10.68-.4-10.68-5.53v-37.62c0-2.32,1.32-4.47,3.46-5.64l43.34-23.66c4.65-2.54,10.49.6,10.49,5.64h0c0,2.33-1.33,4.49-3.49,5.65Z"/>
        <path class="cls-1" d="M95.14,142.69l1.57-.69c2.42-1.06,3.96-3.33,3.96-5.83v-40.93c0-4.99,5.81-8.09,10.4-5.54l20.91,11.61c4.59,2.55,10.4-.55,10.4-5.54v-41.51c0-2.34-1.36-4.5-3.55-5.63l-43.28-22.45c-4.59-2.38-10.23.72-10.23,5.63h0c0,2.32,1.33,4.46,3.48,5.6l34.98,18.61c2.15,1.15,3.48,3.28,3.48,5.6v9.42c0,4.93-5.69,8.04-10.28,5.61l-21.39-11.32c-4.59-2.43-10.28.67-10.28,5.61v65.94c0,4.72,5.24,7.84,9.81,5.83Z"/>
        <path class="cls-1" d="M15.82,71.05v-22.23c0-2.68,1.55-5.16,4.06-6.46l54.45-28.39c2.51-1.31,4.06-3.78,4.06-6.46v-.06c0-5.68-6.56-9.24-11.83-6.43L3.99,34.44c-2.47,1.32-3.99,3.77-3.99,6.43v30.18c0,4.09,3.54,7.4,7.91,7.4h0c4.37,0,7.91-3.31,7.91-7.4Z"/>
        <path class="cls-4" d="M85.33,7.85v-.86c0-5.42,6.32-8.78,11.29-6l63.45,35.39c2.26,1.26,3.64,3.54,3.64,6v29.07c0,3.86-3.34,6.99-7.47,6.99h0c-4.1,0-7.43-3.09-7.47-6.92l-.24-22.66c-.03-2.51-1.49-4.82-3.84-6.04l-55.53-28.88c-2.37-1.23-3.84-3.57-3.84-6.11Z"/>
        <path class="cls-1" d="M156.23,96.45h-.24c-4.14,0-7.49,3.14-7.49,7.01v16.14c0,2.53-1.46,4.86-3.81,6.11l-55.53,29.28c-2.36,1.24-3.81,3.58-3.81,6.11h0c0,5.38,6.2,8.75,11.2,6.09l63.4-33.74c2.34-1.25,3.79-3.57,3.79-6.09v-23.9c0-3.87-3.35-7.01-7.49-7.01Z"/>
        <path class="cls-3" d="M7.55,96.45h0c4.17,0,7.55,3.16,7.55,7.06v15.99c0,2.58,1.51,4.96,3.94,6.2l55.41,28.27c2.43,1.24,3.94,3.62,3.94,6.2v1.01c0,5.37-6.16,8.78-11.19,6.19L3.91,134.79C1.5,133.55,0,131.18,0,128.61v-25.09c0-3.9,3.38-7.06,7.55-7.06Z"/>
      </g>
      <g>
        <g>
          <path class="cls-2" d="M655.4,155.29v-17.46h5.98c1.36,0,2.48.25,3.36.74s1.53,1.16,1.96,2,.64,1.77.64,2.81-.21,1.98-.64,2.82-1.08,1.52-1.95,2.02-1.99.75-3.35.75h-4.23v-1.96h4.12c.92,0,1.66-.16,2.23-.47s.97-.75,1.22-1.3.38-1.17.38-1.86-.13-1.3-.38-1.85-.66-.97-1.23-1.28-1.31-.47-2.24-.47h-3.63v15.5h-2.23Z"/>
          <path class="cls-2" d="M675.67,155.57c-1.19,0-2.23-.28-3.12-.84s-1.59-1.35-2.09-2.37-.75-2.2-.75-3.54.25-2.56.75-3.58,1.2-1.81,2.09-2.37,1.94-.84,3.12-.84,2.24.28,3.14.84,1.6,1.35,2.1,2.37.75,2.21.75,3.58-.25,2.52-.75,3.54-1.2,1.8-2.1,2.37-1.95.84-3.14.84ZM675.67,153.68c.88,0,1.61-.23,2.18-.68s.99-1.05,1.27-1.79.41-1.54.41-2.4-.14-1.67-.41-2.42-.7-1.35-1.27-1.8-1.3-.69-2.18-.69-1.59.23-2.16.69-.98,1.06-1.25,1.8-.41,1.55-.41,2.43.14,1.66.41,2.4.69,1.33,1.25,1.79,1.28.68,2.16.68Z"/>
          <path class="cls-2" d="M687.24,155.29l-3.97-13.1h2.24l1.59,5.72c.22.78.45,1.67.7,2.65s.5,2.11.74,3.36h-.36c.23-1.2.47-2.29.71-3.28s.48-1.9.7-2.73l1.57-5.72h2.25l1.55,5.72c.22.8.45,1.7.69,2.69s.47,2.1.71,3.32h-.38c.25-1.21.5-2.31.74-3.3s.48-1.89.71-2.71l1.59-5.72h2.24l-3.97,13.1h-2.1l-1.7-5.93c-.17-.6-.34-1.21-.5-1.84s-.32-1.27-.48-1.92-.32-1.32-.48-2h.47c-.16.67-.31,1.34-.47,2s-.32,1.31-.49,1.94-.33,1.24-.5,1.83l-1.7,5.93h-2.1Z"/>
          <path class="cls-2" d="M709.01,155.57c-1.27,0-2.36-.28-3.28-.84s-1.62-1.35-2.12-2.36-.74-2.18-.74-3.53.24-2.53.73-3.55,1.17-1.82,2.06-2.4,1.92-.87,3.11-.87c.7,0,1.38.12,2.06.35s1.29.6,1.84,1.11.99,1.19,1.32,2.02.49,1.86.49,3.07v.88h-10.17v-1.78h9.04l-.98.66c0-.86-.13-1.62-.4-2.29s-.67-1.19-1.2-1.57-1.19-.57-1.98-.57-1.46.19-2.03.58-.99.89-1.29,1.51-.45,1.29-.45,2v1.18c0,.97.17,1.79.5,2.47s.81,1.19,1.41,1.54,1.31.52,2.1.52c.52,0,.98-.07,1.41-.22s.79-.37,1.09-.67.54-.67.7-1.12l2.04.56c-.2.66-.55,1.23-1.03,1.73s-1.08.89-1.8,1.17-1.52.42-2.42.42Z"/>
          <path class="cls-2" d="M717.49,155.29v-13.1h2.04v2.02h.14c.24-.66.67-1.2,1.29-1.6s1.32-.6,2.1-.6c.16,0,.34,0,.56.01s.38.02.51.02v2.12c-.06-.02-.22-.04-.47-.07s-.52-.05-.8-.05c-.62,0-1.19.13-1.68.39s-.88.62-1.17,1.08-.42.98-.42,1.58v8.2h-2.11Z"/>
          <path class="cls-2" d="M731.64,155.57c-1.27,0-2.36-.28-3.28-.84s-1.62-1.35-2.12-2.36-.74-2.18-.74-3.53.24-2.53.73-3.55,1.17-1.82,2.06-2.4,1.92-.87,3.11-.87c.7,0,1.38.12,2.06.35s1.29.6,1.84,1.11.99,1.19,1.32,2.02.49,1.86.49,3.07v.88h-10.17v-1.78h9.04l-.98.66c0-.86-.13-1.62-.4-2.29s-.67-1.19-1.2-1.57-1.19-.57-1.98-.57-1.46.19-2.03.58-.99.89-1.29,1.51-.45,1.29-.45,2v1.18c0,.97.17,1.79.5,2.47s.81,1.19,1.41,1.54,1.31.52,2.1.52c.52,0,.98-.07,1.41-.22s.79-.37,1.09-.67.54-.67.7-1.12l2.04.56c-.2.66-.55,1.23-1.03,1.73s-1.08.89-1.8,1.17-1.52.42-2.42.42Z"/>
          <path class="cls-2" d="M745.03,155.57c-1.09,0-2.05-.28-2.88-.83s-1.49-1.34-1.96-2.36-.7-2.22-.7-3.61.24-2.58.71-3.59,1.13-1.79,1.96-2.34,1.8-.82,2.88-.82c.85,0,1.53.14,2.03.42s.88.6,1.15.96.47.65.62.88h.16v-6.46h2.11v17.46h-2.04v-2.03h-.23c-.14.24-.35.54-.63.91s-.67.69-1.17.97-1.17.43-2.01.43ZM745.35,153.68c.8,0,1.47-.21,2.02-.63s.96-1,1.24-1.74.42-1.6.42-2.57-.14-1.81-.42-2.54-.69-1.29-1.24-1.69-1.22-.61-2.03-.61-1.52.21-2.07.64-.96,1.01-1.24,1.74-.41,1.55-.41,2.46.14,1.74.42,2.49.69,1.34,1.25,1.78,1.24.66,2.05.66Z"/>
          <path class="cls-2" d="M774.4,155.57c-.83,0-1.5-.14-2-.43s-.9-.61-1.17-.97-.48-.67-.63-.91h-.23v2.03h-2.04v-17.46h2.11v6.46h.16c.15-.23.36-.53.62-.88s.65-.67,1.15-.96,1.18-.42,2.03-.42c1.09,0,2.06.27,2.89.82s1.48,1.33,1.96,2.34.71,2.21.71,3.59-.23,2.59-.7,3.61-1.12,1.8-1.95,2.36-1.79.83-2.89.83ZM774.08,153.68c.82,0,1.51-.22,2.06-.66s.96-1.04,1.24-1.78.42-1.58.42-2.49-.14-1.72-.41-2.46-.69-1.31-1.24-1.74-1.24-.64-2.07-.64-1.48.2-2.03.61-.96.97-1.24,1.69-.42,1.57-.42,2.54.14,1.82.42,2.57.7,1.32,1.25,1.74,1.22.63,2.01.63Z"/>
          <path class="cls-2" d="M782.33,160.03l.54-1.83.22.06c.43.11.82.14,1.17.09s.67-.22.95-.52.53-.76.74-1.38l.38-1.09-5-13.17h2.31l2.79,7.77c.3.81.55,1.62.75,2.41s.42,1.57.64,2.32h-.77c.23-.75.44-1.53.65-2.33s.46-1.6.74-2.41l2.81-7.77h2.3l-5.75,15.06c-.27.7-.58,1.27-.96,1.72s-.8.78-1.29,1-1.05.32-1.66.32c-.38,0-.7-.03-.97-.08s-.46-.11-.57-.16Z"/>
          <path class="cls-2" d="M802.08,139.79v-1.97h13.2v1.97h-5.47v15.49h-2.23v-15.49h-5.5Z"/>
          <path class="cls-2" d="M821.91,155.57c-1.27,0-2.36-.28-3.28-.84s-1.62-1.35-2.12-2.36-.74-2.18-.74-3.53.24-2.53.73-3.55,1.17-1.82,2.06-2.4,1.92-.87,3.11-.87c.7,0,1.38.12,2.06.35s1.29.6,1.84,1.11.99,1.19,1.32,2.02.49,1.86.49,3.07v.88h-10.17v-1.78h9.04l-.98.66c0-.86-.13-1.62-.4-2.29s-.67-1.19-1.2-1.57-1.19-.57-1.98-.57-1.46.19-2.03.58-.99.89-1.29,1.51-.45,1.29-.45,2v1.18c0,.97.17,1.79.5,2.47s.81,1.19,1.41,1.54,1.31.52,2.1.52c.52,0,.98-.07,1.41-.22s.79-.37,1.09-.67.54-.67.7-1.12l2.04.56c-.2.66-.55,1.23-1.03,1.73s-1.08.89-1.8,1.17-1.52.42-2.42.42Z"/>
          <path class="cls-2" d="M835.72,155.57c-1.19,0-2.23-.28-3.12-.84s-1.59-1.35-2.09-2.37-.75-2.2-.75-3.54.25-2.56.75-3.58,1.2-1.81,2.09-2.37,1.94-.84,3.12-.84c.63,0,1.23.08,1.79.25s1.08.4,1.54.71.87.69,1.2,1.14.59.96.77,1.53l-2.03.57c-.09-.34-.24-.64-.43-.93s-.43-.53-.71-.73-.6-.37-.96-.48-.75-.17-1.18-.17c-.88,0-1.59.23-2.16.69s-.98,1.06-1.25,1.8-.41,1.55-.41,2.43.14,1.66.41,2.4.69,1.33,1.25,1.79,1.28.68,2.16.68c.44,0,.84-.06,1.21-.18s.69-.28.98-.5.53-.47.72-.77.34-.62.43-.97l2.02.57c-.17.59-.43,1.11-.77,1.56s-.74.85-1.21,1.17-.99.57-1.56.74-1.18.25-1.82.25Z"/>
          <path class="cls-2" d="M846.21,147.44v7.85h-2.11v-17.46h2.11v7.54h-.36c.4-1.21.97-2.07,1.71-2.58s1.6-.76,2.6-.76c.88,0,1.66.18,2.33.54s1.19.91,1.56,1.64.56,1.65.56,2.76v8.32h-2.12v-8.14c0-1.01-.26-1.8-.79-2.37s-1.25-.86-2.16-.86c-.62,0-1.19.14-1.69.41s-.89.67-1.18,1.2-.43,1.16-.43,1.91Z"/>
          <path class="cls-2" d="M864.14,155.59c-1.26,0-2.35-.2-3.28-.61s-1.65-.97-2.17-1.71-.82-1.58-.89-2.56h2.29c.06.66.29,1.2.67,1.62s.87.74,1.47.95,1.24.31,1.92.31c.79,0,1.5-.13,2.13-.39s1.13-.62,1.49-1.09.55-1.01.55-1.63c0-.56-.16-1.02-.47-1.37s-.74-.64-1.26-.87-1.1-.43-1.72-.6l-2.11-.6c-1.41-.4-2.5-.97-3.28-1.71s-1.17-1.69-1.17-2.85c0-.98.27-1.85.8-2.58s1.25-1.31,2.16-1.72,1.92-.61,3.05-.61,2.16.2,3.05.61,1.58.96,2.09,1.66.78,1.49.81,2.37h-2.18c-.1-.85-.51-1.51-1.22-1.97s-1.59-.7-2.62-.7c-.75,0-1.41.12-1.97.37s-1.01.58-1.32,1.01-.47.91-.47,1.46c0,.61.19,1.1.57,1.47s.83.66,1.35.87.99.37,1.41.49l1.75.48c.47.12.99.3,1.55.52s1.11.51,1.62.87.94.82,1.27,1.38.5,1.24.5,2.06c0,.95-.25,1.81-.74,2.58s-1.22,1.37-2.16,1.82-2.09.67-3.43.67Z"/>
          <path class="cls-2" d="M877.36,155.59c-.83,0-1.58-.16-2.26-.47s-1.21-.77-1.61-1.37-.6-1.33-.6-2.19c0-.75.15-1.36.45-1.83s.69-.84,1.19-1.11,1.04-.47,1.65-.6,1.21-.24,1.82-.32c.78-.1,1.42-.18,1.91-.23s.86-.15,1.1-.28.36-.36.36-.68v-.07c0-.55-.1-1.01-.3-1.39s-.51-.67-.91-.87-.91-.3-1.52-.3-1.16.1-1.61.29-.81.44-1.08.73-.49.59-.63.9l-2.03-.67c.34-.8.79-1.42,1.36-1.87s1.2-.77,1.89-.96,1.37-.28,2.04-.28c.44,0,.94.05,1.49.16s1.1.31,1.62.63.95.78,1.29,1.39.51,1.43.51,2.46v8.64h-2.07v-1.78h-.14c-.15.3-.39.62-.71.94s-.75.6-1.28.81-1.16.33-1.9.33ZM877.72,153.73c.78,0,1.44-.15,1.98-.46s.95-.7,1.23-1.19.42-1,.42-1.53v-1.82c-.09.1-.27.19-.56.28s-.62.15-.99.22-.73.12-1.08.16-.62.08-.83.1c-.51.06-.98.17-1.42.32s-.79.38-1.06.67-.4.69-.4,1.19c0,.45.12.83.35,1.14s.55.54.96.69.87.23,1.39.23Z"/>
          <path class="cls-2" d="M890.6,155.29l-5-13.1h2.31l2.79,7.77c.3.8.55,1.61.76,2.41s.42,1.58.65,2.33h-.77c.23-.75.44-1.53.65-2.33s.46-1.6.74-2.41l2.79-7.77h2.31l-5,13.1h-2.21Z"/>
          <path class="cls-2" d="M903.86,155.59c-.83,0-1.58-.16-2.26-.47s-1.21-.77-1.61-1.37-.6-1.33-.6-2.19c0-.75.15-1.36.45-1.83s.69-.84,1.19-1.11,1.04-.47,1.65-.6,1.21-.24,1.82-.32c.78-.1,1.42-.18,1.91-.23s.86-.15,1.1-.28.36-.36.36-.68v-.07c0-.55-.1-1.01-.3-1.39s-.51-.67-.91-.87-.91-.3-1.52-.3-1.16.1-1.61.29-.81.44-1.08.73-.49.59-.63.9l-2.03-.67c.34-.8.79-1.42,1.36-1.87s1.2-.77,1.89-.96,1.37-.28,2.04-.28c.44,0,.94.05,1.49.16s1.1.31,1.62.63.95.78,1.29,1.39.51,1.43.51,2.46v8.64h-2.07v-1.78h-.14c-.15.3-.39.62-.71.94s-.75.6-1.28.81-1.16.33-1.9.33ZM904.22,153.73c.78,0,1.44-.15,1.98-.46s.95-.7,1.23-1.19.42-1,.42-1.53v-1.82c-.09.1-.27.19-.56.28s-.62.15-.99.22-.73.12-1.08.16-.62.08-.83.1c-.51.06-.98.17-1.42.32s-.79.38-1.06.67-.4.69-.4,1.19c0,.45.12.83.35,1.14s.55.54.96.69.87.23,1.39.23Z"/>
          <path class="cls-2" d="M915.78,147.44v7.85h-2.11v-13.1h2.03v3.18s-.28,0-.28,0c.4-1.21.97-2.07,1.71-2.58s1.6-.76,2.6-.76c.88,0,1.66.18,2.32.54s1.18.91,1.55,1.64.56,1.65.56,2.76v8.32h-2.11v-8.14c0-1.01-.26-1.8-.79-2.37s-1.25-.86-2.16-.86c-.62,0-1.19.14-1.69.41s-.89.67-1.18,1.2-.43,1.16-.43,1.91Z"/>
          <path class="cls-2" d="M929.96,147.44v7.85h-2.11v-13.1h2.03v3.18s-.28,0-.28,0c.4-1.21.97-2.07,1.71-2.58s1.6-.76,2.6-.76c.88,0,1.66.18,2.32.54s1.18.91,1.55,1.64.56,1.65.56,2.76v8.32h-2.11v-8.14c0-1.01-.26-1.8-.79-2.37s-1.25-.86-2.16-.86c-.62,0-1.19.14-1.69.41s-.89.67-1.18,1.2-.43,1.16-.43,1.91Z"/>
          <path class="cls-2" d="M945.69,155.59c-.83,0-1.58-.16-2.26-.47s-1.21-.77-1.61-1.37-.6-1.33-.6-2.19c0-.75.15-1.36.45-1.83s.69-.84,1.19-1.11,1.04-.47,1.65-.6,1.21-.24,1.82-.32c.78-.1,1.42-.18,1.91-.23s.86-.15,1.1-.28.36-.36.36-.68v-.07c0-.55-.1-1.01-.3-1.39s-.51-.67-.91-.87-.91-.3-1.52-.3-1.16.1-1.61.29-.81.44-1.08.73-.49.59-.63.9l-2.03-.67c.34-.8.79-1.42,1.36-1.87s1.2-.77,1.89-.96,1.37-.28,2.04-.28c.44,0,.94.05,1.49.16s1.1.31,1.62.63.95.78,1.29,1.39.51,1.43.51,2.46v8.64h-2.07v-1.78h-.14c-.15.3-.39.62-.71.94s-.75.6-1.28.81-1.16.33-1.9.33ZM946.06,153.73c.78,0,1.44-.15,1.98-.46s.95-.7,1.23-1.19.42-1,.42-1.53v-1.82c-.09.1-.27.19-.56.28s-.62.15-.99.22-.73.12-1.08.16-.62.08-.83.1c-.51.06-.98.17-1.42.32s-.79.38-1.06.67-.4.69-.4,1.19c0,.45.12.83.35,1.14s.55.54.96.69.87.23,1.39.23Z"/>
        </g>
        <g>
          <path class="cls-1" d="M210.52,112.38c-5.59,0-10.46-.92-14.6-2.75-4.14-1.84-7.37-4.56-9.68-8.16-.82-1.28-1.51-2.67-2.05-4.16-1.63-4.45,1.74-9.16,6.48-9.16h.71c2.71,0,5.04,1.72,6.09,4.22.31.75.7,1.44,1.15,2.07,1.22,1.69,2.84,2.95,4.88,3.78,2.03.83,4.33,1.25,6.89,1.25s4.79-.39,6.68-1.18c1.89-.78,3.37-1.89,4.43-3.33,1.06-1.44,1.59-3.1,1.59-5.01,0-1.7-.48-3.13-1.43-4.28-.95-1.15-2.32-2.15-4.1-2.98s-3.95-1.57-6.52-2.2l-7.69-2.05c-5.91-1.54-10.53-3.95-13.88-7.24-3.34-3.29-5.02-7.64-5.02-13.05,0-4.51,1.13-8.45,3.4-11.82,2.27-3.37,5.37-5.99,9.33-7.86,3.95-1.87,8.46-2.8,13.52-2.8s9.66.94,13.5,2.83c3.84,1.89,6.84,4.51,9,7.86.32.5.62,1.01.89,1.53,2.41,4.57-.92,10.07-6.09,10.07h-.15c-2.68,0-5.01-1.61-6.24-3.99-.6-1.16-1.43-2.15-2.5-2.97-2.14-1.64-4.99-2.45-8.55-2.45-2.41,0-4.47.37-6.19,1.1-1.72.73-3.02,1.75-3.91,3.05-.89,1.3-1.34,2.79-1.34,4.46,0,1.84.52,3.36,1.55,4.58s2.41,2.2,4.12,2.95c1.72.75,3.55,1.38,5.48,1.88l6.33,1.65c2.94.7,5.67,1.65,8.2,2.85s4.75,2.68,6.66,4.43c1.91,1.75,3.38,3.83,4.43,6.23,1.05,2.4,1.57,5.17,1.57,8.31,0,4.51-1.06,8.44-3.19,11.79-2.13,3.36-5.2,5.95-9.23,7.79-4.03,1.84-8.88,2.75-14.53,2.75Z"/>
          <path class="cls-1" d="M262.08,112.38c-3.31,0-6.29-.63-8.93-1.88-2.64-1.25-4.72-3.12-6.23-5.61-1.52-2.49-2.27-5.58-2.27-9.29,0-3.1.54-5.71,1.62-7.81s2.55-3.79,4.41-5.06c1.86-1.27,3.97-2.24,6.33-2.9,2.36-.67,4.84-1.14,7.43-1.4,3.03-.33,5.48-.64,7.34-.93,1.86-.28,3.22-.73,4.08-1.35.86-.62,1.29-1.53,1.29-2.73v-.25c0-1.6-.31-2.95-.94-4.06-.63-1.1-1.55-1.94-2.79-2.53-1.23-.58-2.73-.88-4.48-.88s-3.39.29-4.73.88c-1.34.58-2.44,1.36-3.28,2.33-.13.15-.25.3-.37.45-1.31,1.69-3.47,2.47-5.57,2.1l-1.02-.18c-4.61-.81-6.46-6.25-3.37-9.61l.06-.07c2.09-2.27,4.69-4.01,7.8-5.21,3.11-1.2,6.62-1.8,10.52-1.8,2.81,0,5.55.36,8.2,1.08,2.66.72,5.04,1.83,7.15,3.33,2.11,1.5,3.78,3.46,5.02,5.88,1.23,2.42,1.85,5.32,1.85,8.69v31.05c0,3.68-2.98,6.66-6.66,6.66h0c-3.68,0-6.66-2.98-6.66-6.66v-1.11h-.47c-.84,1.74-1.97,3.26-3.38,4.58-1.41,1.32-3.1,2.36-5.09,3.13-1.98.77-4.27,1.15-6.87,1.15ZM266.07,101.81c2.22,0,4.16-.47,5.84-1.4,1.67-.93,2.98-2.2,3.91-3.81s1.41-3.39,1.41-5.36v-6.06c-.41.33-1.03.63-1.88.9s-1.78.5-2.81.7-2.05.38-3.05.55c-1,.17-1.89.3-2.67.4-1.72.27-3.23.7-4.55,1.3s-2.33,1.39-3.05,2.38c-.72.98-1.08,2.25-1.08,3.78,0,1.44.34,2.65,1.03,3.63.69.98,1.62,1.73,2.81,2.23,1.19.5,2.55.75,4.08.75Z"/>
          <path class="cls-1" d="M313.71,103.72l-13.56-39.31c-1.54-4.46,1.78-9.12,6.5-9.12h.21c3.03,0,5.7,1.98,6.58,4.88l7.33,24.17c1.06,3.64,1.99,7.31,2.79,11.02s1.62,7.55,2.46,11.52h-3c.81-3.97,1.61-7.81,2.39-11.52.78-3.71,1.7-7.38,2.77-11.02l7.25-24.15c.87-2.91,3.55-4.9,6.58-4.9h0c4.72,0,8.04,4.66,6.5,9.12l-13.59,39.32c-1.56,4.52-5.82,7.55-10.6,7.55h0c-4.78,0-9.04-3.04-10.6-7.56Z"/>
          <path class="cls-1" d="M372.8,112.38c-3.31,0-6.29-.63-8.93-1.88-2.64-1.25-4.72-3.12-6.23-5.61-1.52-2.49-2.27-5.58-2.27-9.29,0-3.1.54-5.71,1.62-7.81s2.55-3.79,4.41-5.06c1.86-1.27,3.97-2.24,6.33-2.9,2.36-.67,4.84-1.14,7.43-1.4,3.03-.33,5.48-.64,7.34-.93,1.86-.28,3.22-.73,4.08-1.35.86-.62,1.29-1.53,1.29-2.73v-.25c0-1.6-.31-2.95-.94-4.06-.63-1.1-1.55-1.94-2.79-2.53-1.23-.58-2.73-.88-4.48-.88s-3.39.29-4.73.88c-1.34.58-2.44,1.36-3.28,2.33-.13.15-.25.3-.37.45-1.31,1.69-3.47,2.46-5.57,2.1l-.85-.15c-4.61-.81-6.62-6.27-3.54-9.64.02-.02.04-.05.06-.07,2.09-2.27,4.69-4.01,7.8-5.21,3.11-1.2,6.62-1.8,10.52-1.8,2.81,0,5.55.36,8.2,1.08,2.66.72,5.04,1.83,7.15,3.33,2.11,1.5,3.78,3.46,5.02,5.88,1.23,2.42,1.85,5.32,1.85,8.69v31.05c0,3.68-2.98,6.66-6.66,6.66h0c-3.68,0-6.66-2.98-6.66-6.66v-1.11h-.47c-.84,1.74-1.97,3.26-3.38,4.58-1.41,1.32-3.1,2.36-5.09,3.13-1.98.77-4.27,1.15-6.87,1.15ZM376.78,101.81c2.22,0,4.16-.47,5.84-1.4,1.67-.93,2.98-2.2,3.91-3.81s1.41-3.39,1.41-5.36v-3.81c0-.96-.93-1.64-1.85-1.35h-.03c-.84.28-1.78.51-2.81.71s-2.05.38-3.05.55c-1,.17-1.89.3-2.67.4-1.72.27-3.23.7-4.55,1.3s-2.33,1.39-3.05,2.38c-.72.98-1.08,2.25-1.08,3.78,0,1.44.34,2.65,1.03,3.63.69.98,1.62,1.73,2.81,2.23,1.19.5,2.55.75,4.08.75Z"/>
          <path class="cls-1" d="M427.97,78.87v25.37c0,3.88-3.15,7.03-7.03,7.03h0c-3.88,0-7.03-3.15-7.03-7.03v-42.27c0-3.69,2.99-6.69,6.69-6.69h0c3.65,0,6.63,2.93,6.69,6.58l.12,7.4h-.84c1.38-4.67,3.46-8.29,6.26-10.84,2.8-2.55,6.41-3.83,10.85-3.83,3.62,0,6.79.84,9.49,2.53,2.7,1.69,4.8,4.11,6.28,7.26,1.48,3.16,2.23,6.92,2.23,11.29v28.58c0,3.88-3.15,7.03-7.03,7.03h0c-3.88,0-7.03-3.15-7.03-7.03v-25.97c0-3.47-.84-6.19-2.51-8.16-1.67-1.97-3.99-2.95-6.96-2.95-1.97,0-3.73.46-5.27,1.38s-2.75,2.25-3.61,3.98c-.86,1.74-1.29,3.86-1.29,6.36Z"/>
          <path class="cls-1" d="M487.74,78.87v25.71c0,3.69-2.99,6.69-6.69,6.69h-.69c-3.69,0-6.69-2.99-6.69-6.69v-42.61c0-3.69,2.99-6.69,6.69-6.69h0c3.65,0,6.63,2.93,6.69,6.58l.12,7.4h-.84c1.38-4.67,3.46-8.29,6.26-10.84,2.8-2.55,6.41-3.83,10.85-3.83,3.62,0,6.79.84,9.49,2.53,2.7,1.69,4.8,4.11,6.28,7.26,1.48,3.16,2.23,6.92,2.23,11.29v28.92c0,3.69-2.99,6.69-6.69,6.69h-.69c-3.69,0-6.69-2.99-6.69-6.69v-26.31c0-3.47-.84-6.19-2.51-8.16-1.67-1.97-3.99-2.95-6.96-2.95-1.97,0-3.73.46-5.27,1.38s-2.75,2.25-3.61,3.98c-.86,1.74-1.29,3.86-1.29,6.36Z"/>
          <path class="cls-1" d="M548.07,112.38c-3.31,0-6.29-.63-8.93-1.88-2.64-1.25-4.72-3.12-6.23-5.61-1.52-2.49-2.27-5.58-2.27-9.29,0-3.1.54-5.71,1.62-7.81s2.55-3.79,4.41-5.06c1.86-1.27,3.97-2.24,6.33-2.9,2.36-.67,4.84-1.14,7.43-1.4,3.03-.33,5.48-.64,7.34-.93,1.86-.28,3.22-.73,4.08-1.35.86-.62,1.29-1.53,1.29-2.73v-.25c0-1.6-.31-2.95-.94-4.06-.63-1.1-1.55-1.94-2.79-2.53-1.23-.58-2.73-.88-4.48-.88s-3.39.29-4.73.88c-1.34.58-2.44,1.36-3.28,2.33-.13.15-.25.3-.37.45-1.31,1.69-3.47,2.46-5.57,2.1l-.96-.17c-4.49-.79-6.5-6.25-3.43-9.62.02-.02.04-.05.06-.07,2.09-2.27,4.69-4.01,7.8-5.21,3.11-1.2,6.62-1.8,10.52-1.8,2.81,0,5.55.36,8.2,1.08,2.66.72,5.04,1.83,7.15,3.33,2.11,1.5,3.78,3.46,5.02,5.88,1.23,2.42,1.85,5.32,1.85,8.69v31.05c0,3.68-2.98,6.66-6.66,6.66h0c-3.68,0-6.66-2.98-6.66-6.66v-1.11h-.47c-.84,1.74-1.97,3.26-3.38,4.58-1.41,1.32-3.1,2.36-5.09,3.13-1.98.77-4.27,1.15-6.87,1.15ZM552.05,101.81c2.22,0,4.16-.47,5.84-1.4,1.67-.93,2.98-2.2,3.91-3.81s1.41-3.39,1.41-5.36v-6.06c-.41.33-1.03.63-1.88.9s-1.78.5-2.81.7-2.05.38-3.05.55c-1,.17-1.89.3-2.67.4-1.72.27-3.23.7-4.55,1.3s-2.33,1.39-3.05,2.38c-.72.98-1.08,2.25-1.08,3.78,0,1.44.34,2.65,1.03,3.63.69.98,1.62,1.73,2.81,2.23,1.19.5,2.55.75,4.08.75Z"/>
          <path class="cls-1" d="M589.18,125.3v-63.09c0-3.82,3.1-6.91,6.91-6.91h0c3.82,0,6.91,3.1,6.91,6.91v2.5h.66c.66-1.47,1.59-2.99,2.79-4.56,1.2-1.57,2.79-2.89,4.76-3.96s4.44-1.6,7.41-1.6c3.87,0,7.42,1.07,10.64,3.21,3.22,2.14,5.79,5.34,7.71,9.62,1.92,4.27,2.88,9.6,2.88,15.98s-.94,11.46-2.81,15.75-4.42,7.55-7.64,9.77c-3.22,2.22-6.84,3.33-10.88,3.33-2.84,0-5.25-.52-7.22-1.55s-3.57-2.31-4.8-3.83c-1.23-1.52-2.18-3.03-2.84-4.53h-.42v22.98c0,3.82-3.1,6.91-6.91,6.91h-.23c-3.82,0-6.91-3.1-6.91-6.91ZM614.21,100.16c2.44,0,4.49-.72,6.16-2.15,1.67-1.44,2.94-3.42,3.8-5.96.86-2.54,1.29-5.44,1.29-8.71s-.43-6.16-1.29-8.66c-.86-2.5-2.12-4.47-3.77-5.91-1.66-1.44-3.72-2.15-6.19-2.15s-4.45.69-6.14,2.08-2.97,3.32-3.84,5.81c-.88,2.49-1.31,5.43-1.31,8.84s.45,6.32,1.34,8.84,2.18,4.48,3.87,5.88c1.69,1.4,3.72,2.1,6.09,2.1Z"/>
          <path class="cls-1" d="M665.25,112.38c-3.31,0-6.29-.63-8.93-1.88-2.64-1.25-4.72-3.12-6.23-5.61-1.52-2.49-2.27-5.58-2.27-9.29,0-3.1.54-5.71,1.62-7.81s2.55-3.79,4.41-5.06c1.86-1.27,3.97-2.24,6.33-2.9,2.36-.67,4.84-1.14,7.43-1.4,3.03-.33,5.48-.64,7.34-.93,1.86-.28,3.22-.73,4.08-1.35.86-.62,1.29-1.53,1.29-2.73v-.25c0-1.6-.31-2.95-.94-4.06-.63-1.1-1.55-1.94-2.79-2.53-1.23-.58-2.73-.88-4.48-.88s-3.39.29-4.73.88c-1.34.58-2.44,1.36-3.28,2.33-.13.15-.25.3-.37.45-1.31,1.69-3.47,2.46-5.57,2.1l-.96-.17c-4.49-.79-6.5-6.25-3.43-9.62.02-.02.04-.05.06-.07,2.09-2.27,4.69-4.01,7.8-5.21,3.11-1.2,6.62-1.8,10.52-1.8,2.81,0,5.55.36,8.2,1.08,2.66.72,5.04,1.83,7.15,3.33,2.11,1.5,3.78,3.46,5.02,5.88,1.23,2.42,1.85,5.32,1.85,8.69v31.05c0,3.68-2.98,6.66-6.66,6.66h0c-3.68,0-6.66-2.98-6.66-6.66v-1.11h-.47c-.84,1.74-1.97,3.26-3.38,4.58-1.41,1.32-3.1,2.36-5.09,3.13-1.98.77-4.27,1.15-6.87,1.15ZM669.24,101.81c2.22,0,4.16-.47,5.84-1.4,1.67-.93,2.98-2.2,3.91-3.81s1.41-3.39,1.41-5.36v-3.84c0-.96-.94-1.61-1.85-1.32,0,0-.02,0-.03,0-.84.27-1.78.5-2.81.7s-2.05.38-3.05.55c-1,.17-1.89.3-2.67.4-1.72.27-3.23.7-4.55,1.3s-2.33,1.39-3.05,2.38c-.72.98-1.08,2.25-1.08,3.78,0,1.44.34,2.65,1.03,3.63.69.98,1.62,1.73,2.81,2.23,1.19.5,2.55.75,4.08.75Z"/>
          <path class="cls-1" d="M704.83,129.43l2.26-7.92c.27-.96,1.26-1.52,2.23-1.27h0c1.88.53,3.55.68,5.02.45,1.47-.23,2.65-.87,3.54-1.9s1.43-2.49,1.62-4.36l.38-3-16.44-46.89c-1.58-4.52,1.77-9.25,6.56-9.25h0c3.06,0,5.76,2,6.65,4.93l7.32,24.12c1.06,3.67,1.93,7.35,2.6,11.02.67,3.67,1.45,7.51,2.32,11.52h-3.28c.84-4.01,1.69-7.85,2.53-11.54s1.83-7.35,2.95-10.99l7.67-24.25c.9-2.86,3.55-4.8,6.55-4.8h0c4.75,0,8.06,4.7,6.47,9.17l-19,53.43c-1.06,3-2.42,5.61-4.08,7.81-1.66,2.2-3.72,3.91-6.19,5.11-2.47,1.2-5.45,1.8-8.95,1.8-1.88,0-3.63-.14-5.25-.43-.81-.14-1.53-.3-2.19-.48-.99-.27-1.55-1.29-1.27-2.28Z"/>
          <path class="cls-3" d="M763.08,105.12v-62.3c0-3.4,2.76-6.16,6.16-6.16h21.07c5.31,0,9.83,1.08,13.55,3.23,3.72,2.15,6.55,5.12,8.51,8.91,1.95,3.79,2.93,8.14,2.93,13.05s-.99,9.29-2.98,13.05c-1.99,3.76-4.86,6.69-8.62,8.81-3.77,2.12-8.34,3.18-13.71,3.18h-11.37c-3.4,0-6.16-2.76-6.16-6.16h0c0-3.4,2.76-6.16,6.16-6.16h9.07c2.94,0,5.35-.54,7.24-1.63,1.89-1.09,3.3-2.58,4.22-4.48.92-1.9,1.38-4.11,1.38-6.61s-.46-4.7-1.38-6.59c-.92-1.89-2.34-3.36-4.24-4.41-1.91-1.05-4.33-1.58-7.27-1.58h-4.11c-3.4,0-6.16,2.76-6.16,6.16v49.68c0,3.4-2.76,6.16-6.16,6.16h-1.98c-3.4,0-6.16-2.76-6.16-6.16Z"/>
          <path class="cls-3" d="M855.94,112.28c-6.16,0-11.7-1.5-16.62-4.51s-8.81-7.36-11.67-13.07c-2.86-5.71-4.29-12.6-4.29-20.68s1.43-15.03,4.29-20.76c2.86-5.73,6.75-10.09,11.67-13.1s10.46-4.51,16.62-4.51,11.73,1.5,16.64,4.51,8.79,7.37,11.65,13.1c2.86,5.73,4.29,12.65,4.29,20.76s-1.43,14.97-4.29,20.68-6.74,10.07-11.65,13.07-10.45,4.51-16.64,4.51ZM855.94,98.71c3.62,0,6.79-.94,9.49-2.83s4.8-4.67,6.3-8.36,2.25-8.19,2.25-13.5-.75-9.91-2.25-13.6-3.6-6.48-6.3-8.36c-2.7-1.89-5.87-2.83-9.49-2.83s-6.75.95-9.47,2.85c-2.72,1.9-4.83,4.7-6.33,8.39s-2.25,8.2-2.25,13.55.75,9.8,2.25,13.47,3.61,6.46,6.33,8.36c2.72,1.9,5.88,2.85,9.47,2.85Z"/>
          <path class="cls-3" d="M924.85,112.38c-5.59,0-10.46-.92-14.6-2.75-4.14-1.84-7.37-4.56-9.68-8.16-.82-1.28-1.51-2.67-2.05-4.17-1.63-4.45,1.74-9.16,6.48-9.16h.71c2.71,0,5.04,1.72,6.09,4.22.31.75.7,1.44,1.15,2.07,1.22,1.69,2.84,2.95,4.88,3.78s4.33,1.25,6.89,1.25,4.79-.39,6.68-1.18c1.89-.78,3.37-1.89,4.43-3.33,1.06-1.44,1.59-3.1,1.59-5.01,0-1.7-.48-3.13-1.43-4.28s-2.32-2.15-4.1-2.98-3.95-1.57-6.52-2.2l-7.69-2.05c-5.91-1.54-10.53-3.95-13.88-7.24-3.34-3.29-5.02-7.64-5.02-13.05,0-4.51,1.13-8.45,3.4-11.82s5.38-5.99,9.33-7.86,8.46-2.8,13.52-2.8,9.66.94,13.5,2.83c3.84,1.89,6.84,4.51,9,7.86.32.5.62,1.01.89,1.53,2.41,4.57-.92,10.07-6.09,10.07h-.15c-2.68,0-5.01-1.61-6.24-3.99-.6-1.16-1.43-2.15-2.5-2.97-2.14-1.64-4.99-2.45-8.55-2.45-2.41,0-4.47.37-6.19,1.1s-3.02,1.75-3.91,3.05c-.89,1.3-1.34,2.79-1.34,4.46,0,1.84.52,3.36,1.55,4.58s2.41,2.2,4.12,2.95,3.55,1.38,5.48,1.88l6.33,1.65c2.94.7,5.67,1.65,8.2,2.85s4.75,2.68,6.66,4.43,3.38,3.83,4.43,6.23,1.57,5.17,1.57,8.31c0,4.51-1.06,8.44-3.19,11.79-2.12,3.36-5.2,5.95-9.23,7.79-4.03,1.84-8.88,2.75-14.53,2.75Z"/>
        </g>
      </g>
    </g>
  </g>
</svg>