<svg width="200" height="53" viewBox="0 0 200 53" fill="none" xmlns="http://www.w3.org/2000/svg">
<g clip-path="url(#clip0_103_1915)">
<path d="M10.211 23.1542C8.89951 23.1542 7.83545 24.2183 7.83545 25.5298C7.83545 26.8412 8.89951 27.9053 10.211 27.9053C11.5224 27.9053 12.5865 26.8412 12.5865 25.5298C12.5865 24.2183 11.524 23.1542 10.211 23.1542Z" fill="#FBB040"/>
<path d="M41.2525 23.1542C39.941 23.1542 38.877 24.2183 38.877 25.5298C38.877 26.8412 39.941 27.9053 41.2525 27.9053C42.5639 27.9053 43.628 26.8412 43.628 25.5298C43.628 24.2183 42.5639 23.1542 41.2525 23.1542Z" fill="#ED1C24"/>
<path d="M26.091 0C17.5499 0 9.9667 4.10561 5.20773 10.4504C5.54233 10.4757 5.88011 10.49 6.21947 10.49H12.4754C15.1285 10.49 17.672 9.66698 20.0158 8.42372C20.7311 8.04472 21.5414 7.82112 22.4009 7.80209C25.3298 7.73548 27.856 10.157 27.9052 13.0859C27.9575 16.1005 25.5281 18.5601 22.5261 18.5601C21.6065 18.5601 20.7422 18.3301 19.9857 17.9226C17.0869 16.3638 13.9359 15.3314 10.6438 15.3314H8.04789C5.90231 15.3314 3.817 15.7755 1.82208 16.5128C0.650174 19.4799 0 22.7085 0 26.091C0 29.5385 0.673961 32.8259 1.88868 35.8389C3.0352 36.1386 4.21186 36.313 5.4123 36.313H11.6683C14.3213 36.313 16.8648 35.49 19.2087 34.2468C19.9239 33.8677 20.7342 33.6441 21.5938 33.625C24.5227 33.5585 27.0488 35.98 27.098 38.9089C27.1503 41.9235 24.7209 44.3831 21.719 44.3831C20.7992 44.3831 19.9349 44.1531 19.1786 43.7456C16.2797 42.1868 13.1287 41.1544 9.83666 41.1544H7.24072C6.45734 41.1544 5.68189 41.2162 4.91595 41.3273C9.65429 47.9004 17.3708 52.1837 26.091 52.1837C40.5011 52.1837 52.182 40.5027 52.182 26.0926C52.1837 11.681 40.5011 0 26.091 0ZM41.4098 32.0234C40.3283 32.0234 39.3102 31.7523 38.4189 31.2733C35.0047 29.4386 31.294 28.2224 27.4183 28.2224H24.3594C20.4837 28.2224 16.7729 29.4386 13.3603 31.2733C12.469 31.7523 11.451 32.0234 10.3695 32.0234C6.83317 32.0234 3.97399 29.1262 4.03584 25.5772C4.09452 22.1282 7.06945 19.2753 10.517 19.3561C11.5303 19.38 12.4849 19.6416 13.327 20.0888C16.0862 21.5541 19.0818 22.523 22.2058 22.523H29.5734C32.6974 22.523 35.693 21.5541 38.4523 20.0888C39.2943 19.6416 40.2474 19.38 41.2623 19.3561C44.7114 19.2769 47.6847 22.1282 47.7434 25.5788C47.8053 29.1262 44.946 32.0234 41.4098 32.0234Z" fill="#0061B2"/>
<path d="M21.5855 40.8865C22.6994 40.8865 23.6026 39.9834 23.6026 38.8694C23.6026 37.7553 22.6994 36.8523 21.5855 36.8523C20.4714 36.8523 19.5684 37.7553 19.5684 38.8694C19.5684 39.9834 20.4714 40.8865 21.5855 40.8865Z" fill="#FBB040"/>
<path d="M22.3931 15.0637C23.5072 15.0637 24.4103 14.1607 24.4103 13.0466C24.4103 11.9327 23.5072 11.0295 22.3931 11.0295C21.2791 11.0295 20.376 11.9327 20.376 13.0466C20.376 14.1607 21.2791 15.0637 22.3931 15.0637Z" fill="#ED1C24"/>
<path d="M67.6624 11.4402V23.1738C67.6624 23.5162 67.5515 23.8107 67.3277 24.0573C67.104 24.3041 66.7023 24.4265 66.1209 24.4265C65.0632 24.4265 64.5334 24.0096 64.5334 23.1757V11.4402H60.7561C60.3239 11.4402 60.018 11.3064 59.84 11.0385C59.6602 10.7708 59.5723 10.4571 59.5723 10.0995C59.5723 9.74184 59.666 9.42819 59.8515 9.16042C60.037 8.89267 60.3239 8.75879 60.7122 8.75879H71.6634C72.0365 8.75879 72.3195 8.89267 72.5127 9.16042C72.7058 9.42819 72.8033 9.74184 72.8033 10.0995C72.8033 10.4571 72.7134 10.7708 72.5356 11.0385C72.3558 11.3064 72.0517 11.4402 71.6195 11.4402H67.6624Z" fill="#0061B2"/>
<path d="M77.2727 12.4009C78.8964 12.4009 80.1893 12.9039 81.1514 13.9099C82.1134 14.9158 82.5934 16.358 82.5934 18.2341C82.5934 18.6664 82.4634 18.9647 82.2014 19.1273C81.9413 19.2918 81.5721 19.374 81.0959 19.374H74.6143C74.7634 21.2063 75.7541 22.1243 77.5863 22.1243C78.0626 22.1243 78.4661 22.0459 78.7932 21.8891C79.1202 21.7323 79.4033 21.5945 79.6423 21.4759C79.8661 21.3573 80.0746 21.2369 80.2677 21.1183C80.4609 20.9997 80.6923 20.9404 80.9601 20.9404C81.2585 20.9404 81.5338 21.0896 81.7863 21.388C82.0388 21.6864 82.167 22.021 82.167 22.394C82.167 22.6617 82.0885 22.897 81.9317 23.0978C81.7748 23.2986 81.5186 23.5109 81.1609 23.7346C80.6847 24.033 80.1147 24.2607 79.451 24.4155C78.7874 24.5724 78.1352 24.6508 77.4945 24.6508C76.5707 24.6508 75.7331 24.5322 74.9795 24.2931C74.2279 24.0541 73.5891 23.6887 73.0689 23.1972C72.5467 22.7057 72.1451 22.0841 71.862 21.3306C71.579 20.5789 71.4375 19.6877 71.4375 18.6587C71.4375 17.8688 71.5484 17.0981 71.7721 16.3465C71.9959 15.5949 72.3459 14.9273 72.8221 14.3459C73.2984 13.7645 73.9065 13.2959 74.6429 12.9383C75.3831 12.5807 76.259 12.4009 77.2727 12.4009ZM79.4856 17.0732C79.4856 16.8036 79.4415 16.532 79.3516 16.2603C79.2617 15.9888 79.1241 15.7401 78.9385 15.5145C78.751 15.2888 78.5177 15.1091 78.2347 14.9732C77.9516 14.8374 77.6093 14.7706 77.2058 14.7706C76.565 14.7706 76.0104 14.9675 75.5399 15.3577C75.0714 15.7479 74.7978 16.3197 74.7232 17.0732H79.4856Z" fill="#0061B2"/>
<path d="M90.5712 12.4009C91.3897 12.4009 92.1032 12.5117 92.7057 12.7355C93.31 12.9593 93.8111 13.2271 94.2147 13.5408C94.6163 13.8544 94.9184 14.1891 95.1193 14.5468C95.3201 14.9044 95.4215 15.2181 95.4215 15.4858C95.4215 15.8741 95.2837 16.1935 95.0083 16.4479C94.733 16.7022 94.4002 16.8284 94.0138 16.8284C93.7308 16.8284 93.5032 16.75 93.333 16.5931C93.1608 16.4364 92.9638 16.2546 92.7401 16.0461C92.3977 15.7325 92.0688 15.4839 91.7569 15.2965C91.4433 15.111 91.0264 15.0172 90.5062 15.0172C89.8941 15.0172 89.4103 15.1511 89.0526 15.4188C88.695 15.6866 88.4273 16.0117 88.2475 16.3904C88.0677 16.7711 87.953 17.1688 87.9012 17.5858C87.8496 18.0027 87.8229 18.3527 87.8229 18.6358C87.8229 18.9475 87.8573 19.3071 87.9243 19.7087C87.9911 20.1103 88.125 20.4871 88.3259 20.8371C88.5267 21.1871 88.8097 21.4816 89.175 21.7208C89.5404 21.9598 90.0127 22.0784 90.5941 22.0784C91.145 22.0784 91.5773 21.9885 91.8909 21.8107C92.2046 21.6328 92.5468 21.3497 92.9198 20.9614C93.0844 20.7836 93.2431 20.6306 93.3998 20.5025C93.5567 20.3763 93.7613 20.3131 94.0138 20.3131C94.1917 20.3131 94.3677 20.3513 94.5397 20.424C94.7099 20.4986 94.8592 20.6 94.9873 20.7263C95.1135 20.8525 95.2188 20.9978 95.3009 21.1623C95.3832 21.3268 95.4234 21.497 95.4234 21.6768C95.4234 21.9752 95.3087 22.2983 95.0772 22.6483C94.8458 22.9983 94.5149 23.3235 94.0826 23.6199C93.6504 23.9183 93.1245 24.1669 92.5067 24.3678C91.889 24.5685 91.1832 24.6699 90.3952 24.6699C89.3529 24.6699 88.4654 24.5016 87.7349 24.1669C87.0043 23.8322 86.4114 23.3885 85.9581 22.8377C85.503 22.2869 85.1759 21.6538 84.975 20.9385C84.7742 20.2232 84.6729 19.485 84.6729 18.7257C84.6729 17.7273 84.8144 16.8342 85.0975 16.0443C85.3805 15.2544 85.7821 14.5908 86.3043 14.0552C86.8264 13.5197 87.448 13.1085 88.1709 12.8254C88.892 12.5424 89.6915 12.4009 90.5712 12.4009Z" fill="#0061B2"/>
<path d="M104.429 12.4007C105.219 12.4007 105.864 12.523 106.363 12.7697C106.862 13.0165 107.298 13.3704 107.671 13.8312C108.059 14.3381 108.289 14.9004 108.363 15.5181C108.438 16.1358 108.474 16.7211 108.474 17.272V23.1951C108.474 23.6273 108.348 23.941 108.094 24.1342C107.84 24.3273 107.453 24.4249 106.931 24.4249C106.483 24.4249 106.114 24.3312 105.824 24.1456C105.533 23.9601 105.388 23.6426 105.388 23.1933V17.3236C105.388 16.6676 105.321 16.1894 105.187 15.8892C105.053 15.5908 104.848 15.3804 104.573 15.2619C104.297 15.1433 103.965 15.0821 103.578 15.0821C103.19 15.0821 102.851 15.1413 102.561 15.2619C102.27 15.3804 102.027 15.5315 101.834 15.7094C101.641 15.8892 101.492 16.0823 101.386 16.2927C101.281 16.5012 101.209 16.6963 101.163 16.8761C101.088 17.1457 101.048 17.4518 101.04 17.794C101.033 18.1383 101.029 18.4291 101.029 18.6681V23.1263C101.029 23.5891 100.906 23.9219 100.66 24.1227C100.413 24.3236 100.008 24.4249 99.4414 24.4249C98.9786 24.4249 98.6151 24.3273 98.3455 24.1342C98.0758 23.941 97.9438 23.6197 97.9438 23.1722V9.85311C97.9438 9.45147 98.0662 9.14164 98.313 8.92552C98.5597 8.7094 98.9651 8.60229 99.5313 8.60229C99.7244 8.60229 99.9119 8.62142 100.09 8.65776C100.268 8.69601 100.428 8.75912 100.57 8.8471C100.711 8.93699 100.822 9.06322 100.904 9.2277C100.987 9.39218 101.027 9.60831 101.027 9.87606V14.055C101.325 13.6534 101.758 13.2766 102.324 12.9266C102.894 12.5766 103.594 12.4007 104.429 12.4007Z" fill="#0061B2"/>
<path d="M121.034 20.8944C121.034 22.1451 120.578 23.0843 119.671 23.7097C118.762 24.335 117.525 24.6487 115.96 24.6487C115.067 24.6487 114.266 24.5455 113.558 24.335C112.85 24.1265 112.281 23.8664 111.848 23.5528C111.655 23.4189 111.51 23.2659 111.412 23.0957C111.315 22.9235 111.267 22.7572 111.267 22.5927C111.267 22.2944 111.341 22.0113 111.49 21.7435C111.609 21.5198 111.762 21.3343 111.949 21.185C112.135 21.0359 112.355 20.9613 112.61 20.9613C112.833 20.9613 113.049 21.0283 113.258 21.1621C113.467 21.296 113.701 21.4451 113.961 21.6097C114.221 21.7742 114.524 21.9214 114.867 22.0572C115.209 22.1911 115.641 22.2581 116.163 22.2581C116.803 22.2581 117.264 22.1547 117.549 21.9444C117.832 21.7359 117.974 21.4528 117.974 21.0951C117.974 20.8274 117.873 20.5807 117.672 20.357C117.471 20.1331 117.058 19.9687 116.431 19.8654L115.09 19.6416C114.539 19.5517 114.036 19.4217 113.581 19.2515C113.126 19.0813 112.735 18.8575 112.406 18.5802C112.08 18.3047 111.825 17.9701 111.647 17.5742C111.47 17.1802 111.38 16.6982 111.38 16.132C111.38 15.5354 111.498 15.0075 111.738 14.5446C111.976 14.0837 112.311 13.6916 112.743 13.3722C113.175 13.051 113.693 12.81 114.297 12.6455C114.901 12.481 115.558 12.3988 116.274 12.3988C117.316 12.3988 118.166 12.5212 118.821 12.7678C119.477 13.0146 119.961 13.2632 120.275 13.5176C120.468 13.6821 120.602 13.8446 120.676 14.0091C120.752 14.1736 120.787 14.3362 120.787 14.5006C120.787 14.8583 120.69 15.1643 120.497 15.4168C120.378 15.566 120.254 15.6807 120.128 15.763C120.001 15.8451 119.841 15.8854 119.647 15.8854C119.483 15.8854 119.315 15.851 119.144 15.784C118.972 15.7171 118.827 15.6463 118.709 15.5717C118.306 15.3345 117.918 15.1394 117.546 14.9903C117.173 14.8411 116.689 14.7665 116.092 14.7665C115.511 14.7665 115.083 14.8678 114.806 15.0687C114.531 15.2696 114.393 15.5201 114.393 15.8184C114.393 16.0862 114.496 16.3214 114.696 16.5222C114.897 16.7231 115.333 16.8838 116.004 17.0022L117.188 17.2261C118.544 17.4804 119.524 17.882 120.128 18.4329C120.734 18.9875 121.034 19.8081 121.034 20.8944Z" fill="#0061B2"/>
<path d="M133.507 23.1973C133.507 23.6295 133.397 23.9432 133.183 24.1363C132.967 24.3295 132.598 24.4271 132.075 24.4271C131.628 24.4271 131.274 24.3333 131.014 24.1478C130.754 23.9623 130.624 23.6448 130.624 23.1973V22.7957C130.459 23.0041 130.278 23.2126 130.076 23.4211C129.876 23.6295 129.629 23.817 129.339 23.9796C129.047 24.144 128.71 24.2778 128.322 24.3812C127.933 24.4844 127.487 24.5379 126.981 24.5379C125.802 24.5379 124.874 24.2282 124.198 23.6104C123.518 22.9927 123.18 22.1684 123.18 21.1413C123.18 20.5446 123.282 20.0397 123.483 19.6208C123.683 19.2039 123.958 18.8539 124.309 18.5708C124.658 18.2877 125.068 18.064 125.539 17.8994C126.007 17.735 126.502 17.6088 127.025 17.5189C127.59 17.4156 128.16 17.3334 128.735 17.2721C129.308 17.2129 129.929 17.1613 130.601 17.1154V16.6907C130.601 16.467 130.57 16.2471 130.511 16.0309C130.452 15.8148 130.351 15.6178 130.209 15.438C130.068 15.2602 129.87 15.1186 129.616 15.0134C129.361 14.9102 129.05 14.8566 128.676 14.8566C128.438 14.8566 128.218 14.8719 128.017 14.9006C127.816 14.9312 127.622 14.979 127.436 15.046C127.251 15.1129 127.055 15.2066 126.854 15.3251C126.654 15.4437 126.426 15.5852 126.173 15.7498C125.98 15.8836 125.797 15.9965 125.626 16.0845C125.454 16.1744 125.242 16.2184 124.989 16.2184C124.647 16.2184 124.341 16.0883 124.073 15.8282C123.805 15.568 123.672 15.2506 123.672 14.8776C123.672 14.6251 123.775 14.3517 123.985 14.0609C124.194 13.7703 124.511 13.5026 124.936 13.2558C125.36 13.0091 125.883 12.8044 126.5 12.6418C127.118 12.4774 127.845 12.3951 128.679 12.3951C130.393 12.3951 131.626 12.7299 132.378 13.4012C133.129 14.0725 133.507 15.1148 133.507 16.5301V23.1973ZM130.601 18.9954C130.035 19.0547 129.496 19.1216 128.981 19.1962C128.467 19.2708 128.084 19.3377 127.829 19.3971C127.114 19.5462 126.65 19.7585 126.433 20.034C126.217 20.3093 126.11 20.5886 126.11 20.8716C126.11 21.2599 126.229 21.562 126.468 21.7762C126.707 21.9923 127.116 22.0994 127.698 22.0994C128.622 22.0994 129.337 21.8872 129.843 21.4626C130.351 21.038 130.603 20.4911 130.603 19.8197V18.9954H130.601Z" fill="#0061B2"/>
<path d="M143.119 23.488C142.954 23.8303 142.746 24.077 142.494 24.2262C142.239 24.3754 141.881 24.45 141.421 24.45C141.122 24.45 140.879 24.4194 140.694 24.3601C140.507 24.3008 140.351 24.2224 140.225 24.1248C140.099 24.0273 139.997 23.9202 139.923 23.8016C139.849 23.683 139.781 23.5626 139.722 23.444L135.9 14.7724C135.796 14.5486 135.737 14.3708 135.721 14.2369C135.706 14.103 135.698 13.9844 135.698 13.8793C135.698 13.491 135.851 13.1869 136.157 12.9631C136.463 12.7394 136.877 12.6284 137.398 12.6284C137.846 12.6284 138.177 12.7145 138.393 12.8847C138.609 13.0569 138.776 13.2902 138.896 13.5885L141.065 19.0642C141.304 19.705 141.453 20.2633 141.512 20.7396C141.587 20.2174 141.751 19.6514 142.004 19.0413L144.172 13.6096C144.307 13.2672 144.479 13.0167 144.687 12.8599C144.896 12.703 145.194 12.6246 145.58 12.6246C146.103 12.6246 146.496 12.747 146.764 12.9938C147.032 13.2404 147.166 13.5408 147.166 13.8984C147.166 14.017 147.154 14.1546 147.132 14.3115C147.109 14.4683 147.061 14.6289 146.986 14.7915L143.119 23.488Z" fill="#0061B2"/>
<path d="M158.786 23.1973C158.786 23.6295 158.677 23.9432 158.463 24.1363C158.247 24.3295 157.877 24.4271 157.356 24.4271C156.908 24.4271 156.554 24.3333 156.294 24.1478C156.034 23.9623 155.904 23.6448 155.904 23.1973V22.7957C155.74 23.0041 155.558 23.2126 155.357 23.4211C155.156 23.6295 154.909 23.817 154.618 23.9796C154.328 24.144 153.989 24.2778 153.601 24.3812C153.213 24.4844 152.768 24.5379 152.26 24.5379C151.083 24.5379 150.155 24.2282 149.477 23.6104C148.799 22.9927 148.46 22.1684 148.46 21.1413C148.46 20.5446 148.561 20.0397 148.762 19.6208C148.963 19.2039 149.238 18.8539 149.589 18.5708C149.938 18.2877 150.348 18.064 150.818 17.8994C151.287 17.735 151.783 17.6088 152.304 17.5189C152.871 17.4156 153.441 17.3334 154.014 17.2721C154.588 17.2129 155.209 17.1613 155.88 17.1154V16.6907C155.88 16.467 155.85 16.2471 155.791 16.0309C155.732 15.8148 155.63 15.6178 155.489 15.438C155.347 15.2602 155.15 15.1186 154.895 15.0134C154.642 14.9102 154.33 14.8566 153.957 14.8566C153.718 14.8566 153.498 14.8719 153.297 14.9006C153.097 14.9312 152.901 14.979 152.716 15.046C152.53 15.1129 152.335 15.2066 152.134 15.3251C151.933 15.4437 151.706 15.5852 151.454 15.7498C151.26 15.8836 151.076 15.9965 150.906 16.0845C150.734 16.1744 150.522 16.2184 150.27 16.2184C149.927 16.2184 149.621 16.0883 149.354 15.8282C149.086 15.568 148.951 15.2506 148.951 14.8776C148.951 14.6251 149.055 14.3517 149.265 14.0609C149.474 13.7703 149.791 13.5026 150.216 13.2558C150.641 13.0091 151.162 12.8044 151.78 12.6418C152.398 12.4774 153.124 12.3951 153.959 12.3951C155.673 12.3951 156.906 12.7299 157.658 13.4012C158.409 14.0725 158.786 15.1148 158.786 16.5301V23.1973ZM155.879 18.9954C155.313 19.0547 154.774 19.1216 154.259 19.1962C153.745 19.2708 153.362 19.3377 153.107 19.3971C152.392 19.5462 151.928 19.7585 151.712 20.034C151.495 20.3093 151.388 20.5886 151.388 20.8716C151.388 21.2599 151.507 21.562 151.746 21.7762C151.985 21.9923 152.394 22.0994 152.976 22.0994C153.9 22.0994 154.615 21.8872 155.121 21.4626C155.629 21.038 155.88 20.4911 155.88 19.8197L155.879 18.9954Z" fill="#0061B2"/>
<path d="M168.709 12.4009C169.483 12.4009 170.128 12.5232 170.642 12.77C171.157 13.0167 171.599 13.3706 171.971 13.8314C172.359 14.3383 172.589 14.9006 172.663 15.5183C172.739 16.136 172.774 16.7213 172.774 17.2722V23.1954C172.774 23.6275 172.648 23.9412 172.395 24.1344C172.14 24.3275 171.754 24.4251 171.231 24.4251C170.784 24.4251 170.415 24.3314 170.124 24.1459C169.833 23.9603 169.688 23.6429 169.688 23.1935V17.3238C169.688 16.6678 169.62 16.1896 169.487 15.8894C169.353 15.591 169.148 15.3807 168.873 15.2621C168.598 15.1435 168.265 15.0823 167.879 15.0823C167.477 15.0823 167.132 15.1454 166.85 15.2735C166.567 15.4016 166.328 15.5566 166.134 15.744C165.941 15.9295 165.793 16.1284 165.687 16.3369C165.582 16.5454 165.509 16.7404 165.463 16.9202C165.388 17.1899 165.348 17.4959 165.341 17.8383C165.333 18.1825 165.329 18.4732 165.329 18.7123V23.1265C165.329 23.5894 165.207 23.9221 164.96 24.1229C164.713 24.3238 164.308 24.4251 163.742 24.4251C163.279 24.4251 162.915 24.3275 162.646 24.1344C162.376 23.9412 162.244 23.6199 162.244 23.1724V13.9424C162.244 13.5408 162.359 13.2117 162.59 12.9593C162.822 12.7069 163.219 12.5787 163.786 12.5787C164.174 12.5787 164.516 12.6647 164.815 12.835C165.113 13.0071 165.262 13.3534 165.262 13.8736V14.1413C165.576 13.6803 166.026 13.2729 166.614 12.923C167.208 12.5768 167.905 12.4009 168.709 12.4009Z" fill="#0061B2"/>
<path d="M182.701 12.4009C183.475 12.4009 184.12 12.5232 184.634 12.77C185.149 13.0167 185.59 13.3706 185.963 13.8314C186.351 14.3383 186.581 14.9006 186.656 15.5183C186.731 16.136 186.766 16.7213 186.766 17.2722V23.1954C186.766 23.6275 186.641 23.9412 186.386 24.1344C186.132 24.3275 185.745 24.4251 185.223 24.4251C184.776 24.4251 184.406 24.3314 184.116 24.1459C183.826 23.9603 183.679 23.6429 183.679 23.1935V17.3238C183.679 16.6678 183.613 16.1896 183.479 15.8894C183.345 15.591 183.141 15.3807 182.865 15.2621C182.59 15.1435 182.257 15.0823 181.871 15.0823C181.469 15.0823 181.125 15.1454 180.842 15.2735C180.559 15.4016 180.319 15.5566 180.127 15.744C179.933 15.9295 179.784 16.1284 179.678 16.3369C179.574 16.5454 179.501 16.7404 179.455 16.9202C179.38 17.1899 179.341 17.4959 179.333 17.8383C179.325 18.1825 179.321 18.4732 179.321 18.7123V23.1265C179.321 23.5894 179.199 23.9221 178.952 24.1229C178.705 24.3238 178.3 24.4251 177.734 24.4251C177.271 24.4251 176.907 24.3275 176.637 24.1344C176.369 23.9412 176.236 23.6199 176.236 23.1724V13.9424C176.236 13.5408 176.351 13.2117 176.583 12.9593C176.814 12.7069 177.212 12.5787 177.777 12.5787C178.166 12.5787 178.508 12.6647 178.806 12.835C179.105 13.0071 179.255 13.3534 179.255 13.8736V14.1413C179.568 13.6803 180.017 13.2729 180.606 12.923C181.2 12.5768 181.895 12.4009 182.701 12.4009Z" fill="#0061B2"/>
<path d="M200 23.1973C200 23.6295 199.892 23.9432 199.676 24.1363C199.46 24.3295 199.092 24.4271 198.57 24.4271C198.122 24.4271 197.768 24.3333 197.508 24.1478C197.247 23.9623 197.118 23.6448 197.118 23.1973V22.7957C196.954 23.0041 196.772 23.2126 196.571 23.4211C196.37 23.6295 196.124 23.817 195.832 23.9796C195.542 24.144 195.203 24.2778 194.815 24.3812C194.427 24.4844 193.981 24.5379 193.474 24.5379C192.296 24.5379 191.369 24.2282 190.692 23.6104C190.013 22.9927 189.674 22.1684 189.674 21.1413C189.674 20.5446 189.775 20.0397 189.976 19.6208C190.178 19.2039 190.453 18.8539 190.802 18.5708C191.153 18.2877 191.561 18.064 192.032 17.8994C192.501 17.735 192.996 17.6088 193.518 17.5189C194.085 17.4156 194.655 17.3334 195.228 17.2721C195.802 17.2129 196.424 17.1613 197.095 17.1154V16.6907C197.095 16.467 197.065 16.2471 197.005 16.0309C196.945 15.8148 196.844 15.6178 196.703 15.438C196.561 15.2602 196.365 15.1186 196.11 15.0134C195.856 14.9102 195.544 14.8566 195.171 14.8566C194.931 14.8566 194.712 14.8719 194.511 14.9006C194.31 14.9312 194.115 14.979 193.929 15.046C193.744 15.1129 193.55 15.2066 193.349 15.3251C193.147 15.4437 192.919 15.5852 192.668 15.7498C192.474 15.8836 192.29 15.9965 192.121 16.0845C191.949 16.1744 191.736 16.2184 191.484 16.2184C191.141 16.2184 190.836 16.0883 190.568 15.8282C190.3 15.568 190.166 15.2506 190.166 14.8776C190.166 14.6251 190.269 14.3517 190.48 14.0609C190.688 13.7703 191.005 13.5026 191.43 13.2558C191.855 13.0091 192.376 12.8044 192.995 12.6418C193.612 12.4774 194.339 12.3951 195.173 12.3951C196.886 12.3951 198.121 12.7299 198.872 13.4012C199.624 14.0725 200 15.1148 200 16.5301V23.1973ZM197.095 18.9954C196.529 19.0547 195.989 19.1216 195.475 19.1962C194.96 19.2708 194.578 19.3377 194.324 19.3971C193.609 19.5462 193.143 19.7585 192.927 20.034C192.711 20.3093 192.604 20.5886 192.604 20.8716C192.604 21.2599 192.723 21.562 192.961 21.7762C193.201 21.9923 193.61 22.0994 194.192 22.0994C195.115 22.0994 195.83 21.8872 196.338 21.4626C196.844 21.038 197.097 20.4911 197.097 19.8197V18.9954H197.095Z" fill="#0061B2"/>
<path d="M64.5161 32.1782C64.5161 32.0272 64.5505 31.9238 64.6232 31.8665C64.694 31.8091 64.7915 31.7804 64.9158 31.7804C65.0401 31.7804 65.1377 31.8091 65.2085 31.8665C65.2792 31.9238 65.3156 32.0272 65.3156 32.1782V40.7771C65.3156 40.9281 65.2792 41.0315 65.2085 41.0889C65.1377 41.1462 65.0401 41.1749 64.9158 41.1749C64.7915 41.1749 64.694 41.1462 64.6232 41.0889C64.5525 41.0315 64.5161 40.9281 64.5161 40.7771V32.1782Z" fill="#A7A7A7"/>
<path d="M69.3206 40.7908C69.3206 40.9418 69.2881 41.0431 69.2211 41.0967C69.1542 41.1502 69.0605 41.177 68.9362 41.177C68.8119 41.177 68.7163 41.1502 68.6512 41.0967C68.5862 41.0431 68.5518 40.9418 68.5518 40.7908V34.6993C68.5518 34.5576 68.5842 34.462 68.6512 34.4142C68.7181 34.3665 68.8042 34.3415 68.9094 34.3415C69.0241 34.3415 69.1179 34.3665 69.1886 34.4142C69.2594 34.462 69.2938 34.5576 69.2938 34.6993V35.906C69.3474 35.7913 69.4315 35.6364 69.5463 35.4413C69.661 35.2462 69.8236 35.0587 70.0301 34.8771C70.2386 34.6954 70.4892 34.5385 70.7876 34.4066C71.084 34.2746 71.436 34.2076 71.8433 34.2076C72.5241 34.2076 73.075 34.3951 73.4957 34.7718C73.9165 35.1486 74.1269 35.7339 74.1269 36.5296V40.8557C74.1269 41.0681 74.0083 41.1752 73.7692 41.1752C73.4957 41.1752 73.358 41.0699 73.358 40.8557V36.8222C73.358 36.2216 73.2356 35.7607 72.9927 35.4413C72.7498 35.1238 72.3138 34.9631 71.6865 34.9631C71.2714 34.9631 70.9119 35.0511 70.6115 35.229C70.3113 35.4069 70.0646 35.6344 69.8753 35.9117C69.684 36.191 69.5463 36.5046 69.4564 36.8546C69.3684 37.2046 69.3245 37.547 69.3245 37.8837V40.7908H69.3206Z" fill="#A7A7A7"/>
<path d="M78.0398 40.7908C78.0398 40.9418 78.0073 41.0431 77.9403 41.0967C77.8735 41.1502 77.7797 41.177 77.6554 41.177C77.5311 41.177 77.4355 41.1502 77.3705 41.0967C77.3054 41.0431 77.271 40.9418 77.271 40.7908V34.6993C77.271 34.5576 77.3035 34.462 77.3705 34.4142C77.4373 34.3665 77.5235 34.3415 77.6286 34.3415C77.7434 34.3415 77.8371 34.3665 77.9079 34.4142C77.9786 34.462 78.013 34.5576 78.013 34.6993V35.906C78.0666 35.7913 78.1508 35.6364 78.2655 35.4413C78.3802 35.2462 78.5428 35.0587 78.7494 34.8771C78.9579 34.6954 79.2084 34.5385 79.5068 34.4066C79.8033 34.2746 80.1551 34.2076 80.5625 34.2076C81.2434 34.2076 81.7942 34.3951 82.215 34.7718C82.6357 35.1486 82.8462 35.7339 82.8462 36.5296V40.8557C82.8462 41.0681 82.7276 41.1752 82.4884 41.1752C82.215 41.1752 82.0772 41.0699 82.0772 40.8557V36.8222C82.0772 36.2216 81.9549 35.7607 81.712 35.4413C81.4691 35.1238 81.033 34.9631 80.4057 34.9631C79.9907 34.9631 79.6311 35.0511 79.3308 35.229C79.0306 35.4069 78.7838 35.6344 78.5944 35.9117C78.4033 36.191 78.2655 36.5046 78.1756 36.8546C78.0877 37.2046 78.0437 37.547 78.0437 37.8837V40.7908H78.0398Z" fill="#A7A7A7"/>
<path d="M85.5635 37.7516C85.5635 37.1951 85.6399 36.6959 85.7949 36.258C85.9498 35.82 86.166 35.4489 86.4451 35.1429C86.7243 34.8369 87.0591 34.6055 87.453 34.4468C87.847 34.288 88.2832 34.2076 88.7594 34.2076C89.2355 34.2076 89.6754 34.288 90.0733 34.4468C90.4711 34.6055 90.8096 34.8388 91.0888 35.1429C91.3681 35.447 91.5842 35.82 91.7391 36.258C91.894 36.6959 91.9706 37.1932 91.9706 37.7516C91.9706 38.3101 91.8921 38.8093 91.7391 39.2511C91.5842 39.6929 91.3681 40.0677 91.0888 40.3718C90.8096 40.6779 90.4711 40.9093 90.0733 41.0681C89.6754 41.2268 89.2375 41.3071 88.7594 41.3071C88.2812 41.3071 87.8451 41.2268 87.453 41.0681C87.0591 40.9093 86.7224 40.6759 86.4451 40.3718C86.166 40.0658 85.9498 39.6929 85.7949 39.2511C85.6399 38.8093 85.5635 38.3082 85.5635 37.7516ZM86.3993 37.7516C86.3993 38.664 86.602 39.3658 87.0094 39.8612C87.4167 40.3566 88 40.6032 88.7612 40.6032C89.5301 40.6032 90.1192 40.3566 90.5266 39.8612C90.9339 39.3658 91.1367 38.6621 91.1367 37.7516C91.1367 36.8489 90.9339 36.1489 90.5266 35.6479C90.1192 35.1486 89.532 34.8981 88.7612 34.8981C88 34.8981 87.4167 35.1486 87.0094 35.6479C86.6039 36.1489 86.3993 36.8489 86.3993 37.7516Z" fill="#A7A7A7"/>
<path d="M93.9769 35.1505C93.9501 35.0796 93.9195 35.0032 93.8831 34.919C93.8468 34.8349 93.8296 34.7526 93.8296 34.6743C93.8296 34.5594 93.8813 34.4734 93.9826 34.416C94.084 34.3587 94.1968 34.33 94.3212 34.33C94.4531 34.33 94.5564 34.4237 94.6271 34.6092L96.8572 40.2493L99.2193 34.6092C99.2632 34.5117 99.3149 34.4409 99.3723 34.3969C99.4296 34.3529 99.4889 34.33 99.5521 34.33C99.6592 34.33 99.7604 34.3587 99.858 34.416C99.9556 34.4734 100.003 34.5518 100.003 34.6475C100.003 34.7278 99.9594 34.8597 99.8714 35.0452L97.3372 40.8977C97.2932 40.9857 97.234 41.0545 97.1574 41.1043C97.0829 41.1521 96.9739 41.1769 96.8324 41.1769C96.6812 41.1769 96.5703 41.1539 96.5015 41.11C96.4307 41.066 96.3829 41.0087 96.3561 40.9378L93.9769 35.1505Z" fill="#A7A7A7"/>
<path d="M106.705 37.0612V36.6232C106.705 36.0399 106.556 35.6039 106.262 35.317C105.965 35.0301 105.485 34.8847 104.821 34.8847C104.555 34.8847 104.326 34.9115 104.131 34.9651C103.936 35.0186 103.766 35.0837 103.62 35.164C103.475 35.2443 103.351 35.3303 103.249 35.4222C103.148 35.5159 103.056 35.6019 102.978 35.6803C102.89 35.7683 102.819 35.8296 102.765 35.8601C102.712 35.8908 102.66 35.906 102.607 35.906C102.509 35.906 102.423 35.8773 102.348 35.82C102.274 35.7626 102.235 35.6842 102.235 35.5885C102.235 35.5082 102.255 35.4337 102.295 35.3629C102.335 35.2921 102.408 35.208 102.513 35.1104C102.689 34.9344 102.882 34.7853 103.09 34.6667C103.299 34.5481 103.504 34.4544 103.708 34.3874C103.911 34.3205 104.106 34.2746 104.292 34.2479C104.477 34.2211 104.645 34.2076 104.796 34.2076C105.282 34.2076 105.697 34.267 106.038 34.3874C106.378 34.506 106.652 34.6705 106.86 34.879C107.069 35.0874 107.218 35.3284 107.311 35.6019C107.405 35.8754 107.451 36.1642 107.451 36.4645V40.8844C107.451 41.0795 107.323 41.177 107.067 41.177C106.889 41.177 106.784 41.133 106.747 41.0451C106.713 40.9571 106.694 40.8328 106.694 40.6741V39.8516C106.569 40.0295 106.426 40.1959 106.263 40.3566C106.099 40.5153 105.912 40.6568 105.699 40.7812C105.487 40.9055 105.246 41.003 104.976 41.0738C104.707 41.1445 104.402 41.1789 104.068 41.1789C103.299 41.1789 102.737 41.0107 102.383 40.6741C102.029 40.3374 101.851 39.8956 101.851 39.3468C101.851 39.0197 101.91 38.7194 102.031 38.444C102.149 38.1705 102.358 37.9333 102.654 37.7344C102.951 37.5355 103.349 37.3787 103.85 37.264C104.349 37.1491 104.984 37.088 105.755 37.0784L106.705 37.0612ZM105.709 37.7248C105.079 37.7344 104.569 37.7766 104.177 37.8511C103.783 37.9257 103.473 38.0309 103.247 38.1628C103.022 38.2948 102.867 38.4574 102.782 38.6468C102.698 38.838 102.656 39.0465 102.656 39.2779C102.656 39.7025 102.775 40.0161 103.014 40.2208C103.253 40.4234 103.655 40.5268 104.221 40.5268C104.46 40.5268 104.689 40.4943 104.911 40.4273C105.133 40.3604 105.34 40.2743 105.535 40.1691C105.73 40.064 105.902 39.9377 106.053 39.7904C106.204 39.6451 106.332 39.4921 106.437 39.3333C106.613 39.0503 106.703 38.7041 106.703 38.2986V37.7153L105.709 37.7248Z" fill="#A7A7A7"/>
<path d="M110.048 35.1106C109.941 35.1106 109.871 35.0801 109.836 35.017C109.8 34.9557 109.783 34.8754 109.783 34.7778C109.783 34.6727 109.8 34.5885 109.836 34.5254C109.871 34.4642 109.941 34.4317 110.048 34.4317H110.884V32.9188C110.884 32.7677 110.896 32.6606 110.917 32.5937C110.94 32.5267 110.979 32.4771 111.043 32.4407C111.114 32.3968 111.183 32.3661 111.249 32.347C111.316 32.3298 111.389 32.3202 111.47 32.3202C111.593 32.3202 111.655 32.3948 111.655 32.5459V34.4298H113.168C113.275 34.4298 113.344 34.4604 113.381 34.5235C113.415 34.5847 113.433 34.6688 113.433 34.7759C113.433 34.8735 113.416 34.9538 113.381 35.015C113.344 35.0762 113.275 35.1087 113.168 35.1087H111.655V39.3948C111.655 39.8633 111.731 40.1847 111.886 40.3568C112.041 40.5289 112.305 40.615 112.676 40.615C112.835 40.615 112.963 40.5997 113.06 40.5691C113.158 40.5385 113.246 40.5002 113.327 40.4562C113.371 40.439 113.415 40.418 113.458 40.397C113.502 40.3759 113.546 40.3645 113.59 40.3645C113.661 40.3645 113.726 40.4046 113.784 40.483C113.841 40.5633 113.87 40.6551 113.87 40.7622C113.87 40.9401 113.743 41.074 113.491 41.1677C113.239 41.2615 112.927 41.3073 112.556 41.3073C111.981 41.3073 111.557 41.1658 111.288 40.8828C111.018 40.5997 110.883 40.1923 110.883 39.6626V35.1106H110.048Z" fill="#A7A7A7"/>
<path d="M116.034 32.3637C116.034 32.1687 116.086 32.0233 116.192 31.9258C116.299 31.8282 116.427 31.7804 116.577 31.7804C116.727 31.7804 116.855 31.8282 116.961 31.9258C117.068 32.0233 117.12 32.1687 117.12 32.3637C117.12 32.5492 117.066 32.6908 116.961 32.7884C116.855 32.8859 116.725 32.9337 116.577 32.9337C116.425 32.9337 116.297 32.8859 116.192 32.7884C116.086 32.6908 116.034 32.5492 116.034 32.3637ZM116.207 34.7258C116.207 34.5747 116.238 34.4733 116.301 34.4198C116.362 34.3662 116.456 34.3394 116.58 34.3394C116.705 34.3394 116.798 34.3662 116.865 34.4198C116.933 34.4733 116.965 34.5747 116.965 34.7258V40.7905C116.965 40.9416 116.933 41.043 116.865 41.0965C116.798 41.1501 116.705 41.1768 116.58 41.1768C116.456 41.1768 116.364 41.1501 116.301 41.0965C116.24 41.043 116.207 40.9416 116.207 40.7905V34.7258Z" fill="#A7A7A7"/>
<path d="M120.89 40.7908C120.89 40.9418 120.858 41.0431 120.791 41.0967C120.725 41.1502 120.631 41.177 120.507 41.177C120.382 41.177 120.286 41.1502 120.222 41.0967C120.156 41.0431 120.122 40.9418 120.122 40.7908V34.6993C120.122 34.5576 120.155 34.462 120.222 34.4142C120.288 34.3665 120.374 34.3415 120.48 34.3415C120.595 34.3415 120.688 34.3665 120.759 34.4142C120.829 34.462 120.865 34.5576 120.865 34.6993V35.906C120.917 35.7913 121.002 35.6364 121.116 35.4413C121.231 35.2462 121.394 35.0587 121.6 34.8771C121.809 34.6954 122.059 34.5385 122.358 34.4066C122.654 34.2746 123.007 34.2076 123.413 34.2076C124.095 34.2076 124.645 34.3951 125.066 34.7718C125.487 35.1486 125.697 35.7339 125.697 36.5296V40.8557C125.697 41.0681 125.579 41.1752 125.34 41.1752C125.066 41.1752 124.928 41.0699 124.928 40.8557V36.8222C124.928 36.2216 124.805 35.7607 124.562 35.4413C124.321 35.1238 123.884 34.9631 123.257 34.9631C122.842 34.9631 122.482 35.0511 122.182 35.229C121.882 35.4069 121.634 35.6344 121.445 35.9117C121.254 36.191 121.116 36.5046 121.027 36.8546C120.939 37.2046 120.895 37.547 120.895 37.8837V40.7908H120.89Z" fill="#A7A7A7"/>
<path d="M134.533 41.1755C134.533 42.1318 134.259 42.8471 133.711 43.3252C133.161 43.8033 132.427 44.0425 131.507 44.0425C131.144 44.0425 130.803 44.0061 130.486 43.9354C130.167 43.8646 129.897 43.7804 129.677 43.6829C129.474 43.5949 129.31 43.505 129.186 43.417C129.061 43.329 129 43.2143 129 43.0728C129 42.9676 129.034 42.8643 129.105 42.7668C129.176 42.6692 129.26 42.6214 129.358 42.6214C129.438 42.6214 129.523 42.6501 129.61 42.7075C129.698 42.7648 129.799 42.8242 129.916 42.8872C130.102 42.9925 130.324 43.0957 130.58 43.1932C130.837 43.2908 131.149 43.3386 131.523 43.3386C131.823 43.3386 132.107 43.2985 132.38 43.22C132.649 43.1397 132.888 43.0116 133.097 42.8356C133.305 42.6577 133.468 42.4283 133.588 42.1451C133.706 41.8621 133.768 41.5159 133.768 41.1105V39.9304C133.529 40.4086 133.207 40.7528 132.806 40.9651C132.402 41.1774 131.928 41.2845 131.38 41.2845C130.911 41.2845 130.494 41.1965 130.132 41.0187C129.769 40.8427 129.462 40.5979 129.211 40.288C128.958 39.9783 128.769 39.6072 128.641 39.1731C128.512 38.7389 128.447 38.2627 128.447 37.7405C128.447 37.2184 128.514 36.7403 128.646 36.308C128.778 35.8739 128.971 35.5029 129.224 35.193C129.476 34.8832 129.788 34.6422 130.159 34.4701C130.53 34.2979 130.95 34.2119 131.419 34.2119C131.986 34.2119 132.46 34.3247 132.839 34.5504C133.219 34.7761 133.532 35.0802 133.782 35.4589V34.7283C133.782 34.5772 133.814 34.4738 133.881 34.4165C133.947 34.3591 134.042 34.3304 134.166 34.3304C134.29 34.3304 134.382 34.3591 134.445 34.4165C134.506 34.4738 134.539 34.5772 134.539 34.7283V41.1755H134.533ZM129.277 37.7788C129.277 38.1938 129.325 38.5744 129.423 38.9206C129.52 39.2668 129.663 39.5613 129.855 39.81C130.044 40.0566 130.282 40.2479 130.564 40.3799C130.847 40.5118 131.171 40.5788 131.534 40.5788C131.905 40.5788 132.232 40.508 132.515 40.3664C132.798 40.2249 133.038 40.0279 133.232 39.7755C133.428 39.523 133.573 39.2228 133.671 38.8728C133.768 38.5228 133.816 38.1403 133.816 37.7252C133.816 36.8416 133.603 36.1531 133.178 35.6616C132.755 35.1701 132.178 34.9252 131.454 34.9252C131.09 34.9252 130.773 34.9941 130.498 35.1318C130.224 35.2695 129.995 35.4646 129.815 35.7151C129.633 35.9676 129.497 36.2678 129.41 36.6178C129.321 36.9678 129.277 37.3542 129.277 37.7788Z" fill="#A7A7A7"/>
<path d="M142.151 32.1782C142.151 32.0272 142.185 31.9238 142.258 31.8665C142.329 31.8091 142.426 31.7804 142.551 31.7804C142.676 31.7804 142.772 31.8091 142.843 31.8665C142.914 31.9238 142.951 32.0272 142.951 32.1782V40.3525H147.741C147.944 40.3525 148.048 40.471 148.048 40.7102C148.048 40.9588 147.947 41.0811 147.741 41.0811H142.58C142.296 41.0811 142.155 40.9396 142.155 40.6566V32.1782H142.151Z" fill="#A7A7A7"/>
<path d="M150.298 32.3637C150.298 32.1687 150.352 32.0233 150.457 31.9258C150.565 31.8282 150.692 31.7804 150.842 31.7804C150.992 31.7804 151.12 31.8282 151.226 31.9258C151.333 32.0233 151.385 32.1687 151.385 32.3637C151.385 32.5492 151.331 32.6908 151.226 32.7884C151.12 32.8859 150.99 32.9337 150.842 32.9337C150.69 32.9337 150.562 32.8859 150.457 32.7884C150.352 32.6908 150.298 32.5492 150.298 32.3637ZM150.47 34.7258C150.47 34.5747 150.501 34.4733 150.565 34.4198C150.626 34.3662 150.719 34.3394 150.843 34.3394C150.968 34.3394 151.061 34.3662 151.128 34.4198C151.196 34.4733 151.228 34.5747 151.228 34.7258V40.7905C151.228 40.9416 151.196 41.043 151.128 41.0965C151.061 41.1501 150.968 41.1768 150.843 41.1768C150.719 41.1768 150.627 41.1501 150.565 41.0965C150.503 41.043 150.47 40.9416 150.47 40.7905V34.7258Z" fill="#A7A7A7"/>
<path d="M156.551 32.2704C156.241 32.2704 155.981 32.3584 155.768 32.5363C155.556 32.7142 155.449 33.0354 155.449 33.5059V34.4354H156.895C157.071 34.4354 157.161 34.5502 157.161 34.7796C157.161 35.0016 157.073 35.1106 156.895 35.1106H155.449V40.7908C155.449 40.942 155.416 41.0433 155.35 41.0968C155.283 41.1504 155.188 41.1772 155.065 41.1772C154.94 41.1772 154.849 41.1504 154.785 41.0968C154.724 41.0433 154.692 40.942 154.692 40.7908V35.1106H153.842C153.736 35.1106 153.665 35.08 153.63 35.0168C153.594 34.9557 153.577 34.8753 153.577 34.7778C153.577 34.6725 153.594 34.5885 153.63 34.5253C153.665 34.4642 153.736 34.4316 153.842 34.4316H154.692V33.4103C154.692 32.8881 154.852 32.4636 155.176 32.1365C155.499 31.8095 155.966 31.645 156.576 31.645C156.744 31.645 156.912 31.6603 157.081 31.6909C157.249 31.7215 157.394 31.7636 157.519 31.8172C157.643 31.8707 157.744 31.9338 157.825 32.0103C157.905 32.0868 157.943 32.1672 157.943 32.2551C157.943 32.3699 157.919 32.4636 157.87 32.5344C157.823 32.6051 157.762 32.6395 157.691 32.6395C157.637 32.6395 157.578 32.6243 157.511 32.5936C157.444 32.5631 157.371 32.5248 157.293 32.4808C157.195 32.4273 157.092 32.3794 156.981 32.3354C156.87 32.2934 156.727 32.2704 156.551 32.2704Z" fill="#A7A7A7"/>
<path d="M165.003 37.5127C165.003 37.6275 164.97 37.7097 164.903 37.7576C164.836 37.8054 164.75 37.8303 164.645 37.8303H159.695C159.712 38.7157 159.923 39.4005 160.326 39.8881C160.728 40.3739 161.306 40.6187 162.057 40.6187C162.357 40.6187 162.612 40.5863 162.82 40.5193C163.028 40.4524 163.205 40.3682 163.352 40.2668C163.497 40.1655 163.62 40.0546 163.718 39.936C163.814 39.8174 163.899 39.7046 163.969 39.5975C164.023 39.5267 164.067 39.4732 164.101 39.4387C164.136 39.4042 164.19 39.3852 164.261 39.3852C164.349 39.3852 164.436 39.412 164.526 39.4655C164.614 39.5191 164.658 39.5936 164.658 39.6911C164.658 39.7964 164.614 39.9131 164.526 40.0354C164.446 40.1597 164.342 40.2936 164.214 40.4409C164.086 40.5863 163.922 40.7239 163.723 40.8521C163.524 40.9803 163.286 41.0893 163.013 41.1772C162.74 41.2652 162.421 41.3092 162.057 41.3092C161.535 41.3092 161.078 41.2232 160.684 41.051C160.29 40.8789 159.961 40.636 159.695 40.3204C159.429 40.0067 159.228 39.6319 159.091 39.1996C158.953 38.7655 158.884 38.2835 158.884 37.7537C158.884 37.2412 158.957 36.765 159.104 36.3269C159.25 35.889 159.46 35.5161 159.735 35.2062C160.009 34.8964 160.339 34.6535 160.724 34.4756C161.109 34.2996 161.541 34.2097 162.019 34.2097C162.505 34.2097 162.935 34.2958 163.306 34.468C163.677 34.64 163.989 34.8753 164.241 35.1718C164.494 35.4682 164.683 35.8182 164.811 36.2198C164.939 36.6215 165.003 37.0537 165.003 37.5127ZM162.004 34.8849C161.64 34.8849 161.323 34.9461 161.048 35.0704C160.774 35.1948 160.542 35.3631 160.357 35.5753C160.171 35.7877 160.026 36.0363 159.919 36.3174C159.812 36.6005 159.747 36.8969 159.72 37.2067H164.232C164.205 36.8969 164.142 36.6024 164.038 36.3251C163.937 36.0458 163.796 35.801 163.614 35.5888C163.433 35.3764 163.209 35.2062 162.944 35.0781C162.681 34.9499 162.367 34.8849 162.004 34.8849Z" fill="#A7A7A7"/>
</g>
<defs>
<clipPath id="clip0_103_1915">
<rect width="200" height="52.6882" fill="white"/>
</clipPath>
</defs>
</svg>
