<svg width="180" height="222" viewBox="0 0 180 222" fill="none" xmlns="http://www.w3.org/2000/svg">
<path d="M128.716 163.375L180 133.219V89.3748L128.716 119.16V163.375Z" fill="#B8B8D8"/>
<path d="M145.049 67.3918L180 87.371L129.916 116.379L95.4263 96.5523L145.049 67.3918Z" fill="#D5D5EF"/>
<path d="M180 87.3706V89.3747L129.916 118.629V116.378L180 87.3706Z" fill="#777793"/>
<path opacity="0.5" d="M139.689 125.555L139.691 144.235L166.826 128.5V109.799L139.689 125.555Z" fill="#D5D5EF"/>
<path opacity="0.3" d="M131.681 161.407V132.017L133.467 122.887V114.322L129.916 116.378L128.715 163.278L131.681 161.407Z" fill="#777793"/>
<path d="M47.5643 107.623V12.7183L45.5103 12.0623V106.068L47.5643 107.623Z" fill="#B8B8D8"/>
<path d="M49.8729 103.112L47.5552 104.804V7.88065L49.8729 5.52539L50.3737 102.525" fill="#ABABCE"/>
<path d="M47.6147 11.6206V23.288L57.7945 17.454V5.8335L47.6147 11.6206Z" fill="#F05A00"/>
<path d="M37.627 17.4753L47.6144 23.2879V11.6205L37.7062 5.81104L37.627 17.4753Z" fill="#F59300"/>
<path d="M47.6143 0L57.7941 5.83345L47.6143 11.6205L37.7061 5.81104L47.6143 0Z" fill="#FFA500"/>
<path d="M73.1347 180.696V195.65L50.3267 182.558V168.342L73.1347 180.696Z" fill="#47476D"/>
<path d="M73.1348 195.65L128.715 163.279V148.279L73.1348 180.696V195.65Z" fill="#221F4F"/>
<path d="M45.5708 97.7158V172.637L77.9411 191.381L77.9885 161.407L79.7659 152.896V117.346L45.5708 97.7158Z" fill="#B8B8D8"/>
<path d="M79.7661 117.346V152.896L131.739 122.888L131.681 87.3713L79.7661 117.346Z" fill="#ABABCE"/>
<path d="M77.9883 161.407L79.7657 152.896L131.738 122.888L129.906 131.433L77.9883 161.407Z" fill="#777793"/>
<path d="M77.9883 161.408L77.9409 191.381L129.856 161.409L129.906 131.433L77.9883 161.408Z" fill="#ABABCE"/>
<path d="M115.717 102.261V112.092L128.135 104.922V95.198L115.717 102.261Z" fill="#221F4F"/>
<path d="M117.336 105.695V107.018L126.842 101.691V100.272L117.336 105.695Z" fill="#47476D"/>
<path d="M117.336 106.441L126.842 101.129" stroke="#221F4F" stroke-width="0.260538" stroke-miterlimit="10"/>
<path d="M86.834 118.721V124.98L97.44 118.834V112.689L86.834 118.721Z" fill="#221F4F"/>
<path d="M88.2168 120.19V122.111L96.3362 117.449V115.559L88.2168 120.19Z" fill="#47476D"/>
<path d="M88.2168 121.089L96.3362 116.666" stroke="#221F4F" stroke-width="0.260538" stroke-miterlimit="10"/>
<path d="M79.8226 114.471V117.49L44.6958 97.2101V94.2244L79.8226 114.471Z" fill="#B8B8D8"/>
<path d="M79.7661 114.326L131.681 84.3511V87.3712L79.7661 117.346V114.326Z" fill="#ABABCE"/>
<path d="M45.5709 97.7156L79.766 117.346V118.834L45.5532 99.1355L45.5709 97.7156Z" fill="#47476D"/>
<path d="M79.7661 118.834L131.681 88.8327V87.3711L79.7661 117.346V118.834Z" fill="#221F4F"/>
<path d="M44.6958 94.2245L96.6606 64.2793L131.738 84.496L79.8226 114.471L44.6958 94.2245Z" fill="#E9E9FF"/>
<path d="M93.5684 80.1246L95.4291 81.3298L107.799 74.1191L105.946 72.9785L93.5684 80.1246Z" fill="#ABABCE"/>
<path d="M99.3408 83.4224L101.203 84.6272L113.572 77.4165L111.72 76.2759L99.3408 83.4224Z" fill="#ABABCE"/>
<path d="M105.841 87.3216L107.703 88.5269L120.073 81.3157L118.218 80.175L105.841 87.3216Z" fill="#ABABCE"/>
<path d="M86.7409 102.588L63.564 88.606L82.3941 78.0459L105.724 91.6277L86.7409 102.588Z" fill="#ABABCE"/>
<path d="M86.5698 101.374L65.2891 88.5358L82.5784 78.8396L103.999 91.3105L86.5698 101.374Z" fill="#47476D"/>
<path d="M85.6735 96.3363L74.3047 89.4779L83.5408 84.2979L94.9836 90.9603L85.6735 96.3363Z" fill="#221F4F"/>
<path opacity="0.1" d="M65.2891 88.5356L103.999 91.3104L86.5698 101.374L65.2891 88.5356Z" fill="#B8B8D8"/>
<path d="M61.4551 57.8062V88.1204L81.5905 76.4946V46.6641L61.4551 57.8062Z" fill="#9B9BBA"/>
<path d="M58.2129 86.3628L61.455 88.235L61.4232 57.5546L58.2134 55.7017L58.2129 86.3628Z" fill="#B8B8D8"/>
<path d="M67.4399 69.1568V84.1523L77.3253 78.4559V63.4495L67.4399 69.1568Z" fill="#221F4F"/>
<path d="M67.4399 71.3349L77.3253 65.7802V63.4495L67.4399 69.1568V71.3349Z" fill="#F05A00"/>
<path d="M63.564 71.395V78.8818L65.3226 77.8662V70.3794L63.564 71.395Z" fill="#221F4F"/>
<path d="M53.3638 41.8357V71.782L85.782 53.0654V23.1187L53.3638 41.8357Z" fill="#ABABCE"/>
<path d="M55.6001 42.582V68.3962L83.5449 52.2626V26.4485L55.6001 42.582Z" fill="#221F4F"/>
<path d="M50.1221 69.9098L53.3637 71.782V41.8358L50.1242 39.9651L50.1221 69.9098Z" fill="#B8B8D8"/>
<path d="M82.5886 21.2195L50.124 39.9652L53.3636 41.8359L85.7818 23.1188L82.5886 21.2195Z" fill="#E9E9FF"/>
<path opacity="0.5" d="M69.9888 72.9788V82.6833L75.1063 79.734V70.3792L69.9888 72.9788Z" fill="#47476D"/>
<path opacity="0.1" d="M83.5449 52.2626L55.6001 42.582V68.3961L83.5449 52.2626Z" fill="#B8B8D8"/>
<path d="M92.7817 77.0099V64.2633L96.1791 62.1514V75.048L92.7817 77.0099Z" fill="#777793"/>
<path d="M92.7971 76.9833L90.0005 75.4279V62.5391L92.7841 64.2841L92.7971 76.9833Z" fill="#ABABCE"/>
<path d="M92.5491 68.1456L100.274 63.7315L92.2578 58.9897L84.8643 63.5163L92.5491 68.1456Z" fill="#47476D"/>
<path d="M92.5899 50.2292L92.395 59.0839L100.274 63.7314L100.315 58.0105L96.1926 52.3089L92.5899 50.2292Z" fill="#ABABCE"/>
<path d="M92.7149 50.1665L92.5898 50.229L96.1926 52.3086L96.3213 52.2216L92.7149 50.1665Z" fill="#9B9BBA"/>
<path d="M100.315 58.0103L96.1924 52.3087L96.3211 52.2217L100.439 57.9295L100.315 58.0103Z" fill="#9B9BBA"/>
<path d="M100.274 63.7313L100.315 58.0105L100.439 57.9297V63.6365L100.274 63.7313Z" fill="#9B9BBA"/>
<path d="M94.4383 52.5285L92.5478 51.4785L85.6982 55.125L87.807 56.3422L94.4383 52.5285Z" fill="#D5D5EF"/>
<path d="M98.316 63.2799L91.8781 66.9962L87.7095 56.3981L94.4387 52.5286L98.316 63.2799Z" fill="#B8B8D8"/>
<path d="M89.2285 56.6503L94.2064 53.812L95.2516 56.5075L90.5255 59.2031L89.2285 56.6503Z" fill="#47476D"/>
<path d="M91.5615 59.8108L92.5813 59.2241L92.9544 60.2433L91.9523 60.8316L91.5615 59.8108Z" fill="#777793"/>
<path d="M92.9546 59.0152L93.9749 58.428L94.3479 59.4472L93.3459 60.036L92.9546 59.0152Z" fill="#777793"/>
<path d="M94.3154 58.2112L95.3357 57.625L95.7088 58.6432L94.7057 59.232L94.3154 58.2112Z" fill="#777793"/>
<path d="M92.104 61.1766L93.1248 60.5898L93.4974 61.6085L92.4948 62.1968L92.104 61.1766Z" fill="#777793"/>
<path d="M93.4971 60.3804L94.5179 59.7937L94.8899 60.8124L93.8879 61.4012L93.4971 60.3804Z" fill="#777793"/>
<path d="M94.8589 59.5765L95.8786 58.9897L96.2507 60.0085L95.2492 60.5978L94.8589 59.5765Z" fill="#777793"/>
<path d="M92.6401 62.5493L93.6609 61.9631L94.0335 62.9818L93.032 63.5706L92.6401 62.5493Z" fill="#777793"/>
<path d="M94.0337 61.7535L95.0534 61.1663L95.4265 62.1855L94.4255 62.7743L94.0337 61.7535Z" fill="#777793"/>
<path d="M95.3945 60.9496L96.4143 60.3623L96.7874 61.3821L95.7859 61.9703L95.3945 60.9496Z" fill="#777793"/>
<path d="M93.1685 63.9068L94.1882 63.3206L94.5608 64.3393L93.5582 64.9281L93.1685 63.9068Z" fill="#00A70F"/>
<path d="M94.561 63.1109L95.5808 62.5237L95.9539 63.5429L94.9518 64.1317L94.561 63.1109Z" fill="#FFA500"/>
<path d="M95.9219 62.3064L96.9421 61.7202L97.3142 62.7394L96.3132 63.3277L95.9219 62.3064Z" fill="#F05A00"/>
<path d="M84.8643 54.6431V63.5165L92.5491 68.1457L92.5897 62.4248L88.4665 56.7232L84.8643 54.6431Z" fill="#B8B8D8"/>
<path d="M84.9893 54.5806L84.8643 54.6431L88.4665 56.7232L88.5952 56.6362L84.9893 54.5806Z" fill="#E9E9FF"/>
<path d="M92.5896 62.4246L88.4663 56.723L88.595 56.636L92.7136 62.3444L92.5896 62.4246Z" fill="#E9E9FF"/>
<path d="M92.5488 68.1456L92.5895 62.4247L92.7135 62.3445V68.0508L92.5488 68.1456Z" fill="#9B9BBA"/>
<path opacity="0.3" d="M79.7337 148.949L61.7311 181.994L45.5709 172.636L45.5532 129.766L79.7337 148.949Z" fill="#777793"/>
<path d="M45.4824 127.017L79.7338 146.792L34.5398 173.018L0.0498047 153.191L45.4824 127.017Z" fill="#D5D5EF"/>
<path d="M0.0500237 153.191L0 196.899L34.5401 216.911V173.018L0.0500237 153.191Z" fill="#B8B8D8"/>
<path d="M79.734 146.793V148.949L34.54 175.27V173.018L79.734 146.793Z" fill="#777793"/>
<path d="M36.406 171.935V215.886L34.54 216.911V173.018L36.406 171.935Z" fill="#777793"/>
<path d="M11.3787 156.96L8.16162 135.438L46.3956 113.709L72.1128 127.898L68.8154 148.692L33.2525 169.293L11.3787 156.96Z" fill="#F05A00"/>
<path d="M29.2124 123.929L46.3954 113.709L70.193 127.358L52.7765 137.533L51.7364 136.933L68.2248 127.543L46.5064 115.091L30.3082 124.562L29.2124 123.929Z" fill="#47476D"/>
<path d="M46.5803 116.319L46.5063 115.091L30.3081 124.562V125.839L46.5803 116.319Z" fill="#221F4F"/>
<path d="M46.5063 115.091L46.5803 116.319L67.0988 128.185L68.2248 127.543L46.5063 115.091Z" fill="#221F4F"/>
<path d="M30.3082 125.839L29.2124 125.245V123.929L30.3082 124.562V125.839Z" fill="#221F4F"/>
<path d="M51.7417 138.14V136.942L52.7766 137.534L51.7417 138.14Z" fill="#221F4F"/>
<path d="M46.5335 112.314L6.94629 135.508L33.3523 150.445L72.9911 127.429L46.5335 112.314ZM33.2007 149.012L9.81012 135.508L46.3438 113.78L70.1414 127.428L33.2007 149.012Z" fill="#FFA500"/>
<path d="M34.0194 166.075C34.0194 166.075 31.1144 124.195 31.338 116.749C31.561 109.304 31.8866 99.2274 32.8324 93.4742C32.933 92.8641 33.4342 91.0752 33.4342 91.0752C33.4342 91.0752 33.7229 98.7079 33.9694 105.637C34.2164 112.565 34.6275 128.204 35.0454 133.384C35.4633 138.565 34.6275 154.199 35.0454 157.415C35.4633 160.631 34.7635 166.425 34.7635 166.425L34.0194 166.075Z" fill="#00A70F"/>
<path d="M33.75 165.266C33.75 165.266 36.2282 128.992 37.3037 122.633C38.3787 116.271 39.8544 107.665 41.3483 102.842C41.5062 102.33 42.1487 100.855 42.1487 100.855C42.1487 100.855 41.4901 107.437 40.8799 113.411C40.2697 119.384 38.7659 132.849 38.51 137.343C38.2537 141.836 35.6811 155.151 35.6577 157.959C35.6353 160.767 34.3472 165.655 34.3472 165.655L33.75 165.266Z" fill="#00A70F"/>
<path d="M33.0127 164.992C33.0127 164.992 33.8542 123.02 34.7406 115.624C35.6269 108.229 36.8494 98.2216 38.3047 92.5752C38.459 91.9765 39.1176 90.2397 39.1176 90.2397C39.1176 90.2397 38.7247 97.8683 38.3527 104.791C37.9806 111.714 36.9958 127.326 36.9505 132.524C36.9051 137.721 34.6781 153.219 34.8073 156.46C34.937 159.7 33.7234 165.408 33.7234 165.408L33.0127 164.992Z" fill="#008C07"/>
<path d="M32.6037 164.295C32.6037 164.295 28.741 119.244 28.3075 112.314C27.9974 107.349 28.7874 103.317 28.7874 103.317C28.7874 103.317 32.6069 123.416 32.6037 129.354C32.6006 135.292 33.4036 164.892 33.4036 164.892L32.6037 164.295Z" fill="#008C07"/>
<path d="M47.2058 139.301C43.2258 153.905 36.1262 164.691 31.3464 163.39C26.567 162.085 25.9209 149.189 29.8999 134.585C33.8809 119.978 40.9826 109.192 45.7645 110.494C50.5418 111.795 51.1884 124.693 47.2058 139.301Z" fill="#FFC500"/>
<path d="M47.2059 139.301C51.1885 124.693 50.5418 111.796 45.7646 110.495C44.4739 110.143 43.0144 110.678 41.4933 111.924C44.0914 116.243 43.908 126.971 40.6784 138.82C37.7723 149.484 33.2009 158.107 29.085 161.478C29.6894 162.484 30.4439 163.144 31.3459 163.39C36.1263 164.691 43.2259 153.905 47.2059 139.301Z" fill="#F59300"/>
<path d="M40.8616 126.386C40.712 127.008 40.0868 127.391 39.4656 127.241L35.4226 126.268C34.801 126.118 34.4185 125.493 34.568 124.871C34.7176 124.25 35.3424 123.868 35.964 124.017L40.007 124.99C40.6287 125.14 41.0117 125.764 40.8616 126.386Z" fill="#FFA500"/>
<path d="M39.8963 130.398C39.7467 131.02 39.1214 131.401 38.5003 131.252L34.4567 130.279C33.8356 130.13 33.4532 129.506 33.6027 128.884C33.7528 128.262 34.3775 127.88 34.9992 128.029L39.0422 129.002C39.6628 129.151 40.0458 129.777 39.8963 130.398Z" fill="#FFA500"/>
<path d="M38.9303 134.41C38.7802 135.032 38.1555 135.414 37.5338 135.265L33.4908 134.291C32.8692 134.142 32.4872 133.517 32.6362 132.895C32.7863 132.274 33.4105 131.891 34.0322 132.041L38.0757 133.014C38.6969 133.163 39.0799 133.788 38.9303 134.41Z" fill="#FFA500"/>
<path d="M37.9643 138.422C37.8148 139.044 37.19 139.426 36.5683 139.277L32.5253 138.304C31.9037 138.154 31.5212 137.529 31.6713 136.908C31.8208 136.286 32.4456 135.903 33.0672 136.053L37.1103 137.026C37.7309 137.176 38.1133 137.801 37.9643 138.422Z" fill="#FFA500"/>
<path d="M36.9983 142.434C36.8487 143.055 36.2234 143.438 35.6023 143.289L31.5593 142.316C30.9382 142.166 30.5552 141.541 30.7047 140.919C30.8543 140.298 31.4796 139.915 32.1007 140.066L36.1437 141.038C36.7654 141.188 37.1478 141.812 36.9983 142.434Z" fill="#FFA500"/>
<path d="M36.0325 146.446C35.8829 147.068 35.2581 147.45 34.6365 147.3L30.5935 146.327C29.9723 146.178 29.5899 145.554 29.7394 144.932C29.8895 144.31 30.5137 143.928 31.1354 144.077L35.1789 145.05C35.7995 145.2 36.1825 145.824 36.0325 146.446Z" fill="#FFA500"/>
<path d="M35.0668 150.458C34.9173 151.08 34.2925 151.462 33.6714 151.313L29.6283 150.34C29.0067 150.19 28.6242 149.565 28.7743 148.944C28.9238 148.322 29.5486 147.939 30.1697 148.089L34.2128 149.062C34.8339 149.211 35.2164 149.836 35.0668 150.458Z" fill="#FFA500"/>
<path d="M17.3751 152.376C14.2726 154.166 14.2575 157.08 17.3397 158.873C20.4223 160.663 25.4544 160.663 28.5548 158.873C31.6578 157.081 31.676 154.166 28.5928 152.376C25.5122 150.584 20.4791 150.584 17.3751 152.376Z" fill="#99A5ED"/>
<path d="M30.8944 132.877H15.0386V155.546H30.8944V132.877Z" fill="#B8B8D8"/>
<path d="M17.3751 129.839C14.2726 131.63 14.2575 134.545 17.3397 136.337C20.4223 138.127 25.4544 138.127 28.5548 136.337C31.6578 134.545 31.676 131.63 28.5928 129.839C25.5122 128.047 20.4791 128.047 17.3751 129.839Z" fill="#D5D5EF"/>
<path d="M27.6494 131.137L18.2847 131.275L18.5619 121.998H27.3821L27.6494 131.137Z" fill="#D5D5EF"/>
<path d="M19.66 123.038C17.8259 124.096 17.8165 125.82 19.6397 126.88C21.4624 127.938 24.4378 127.938 26.2715 126.88C28.1062 125.82 28.1171 124.096 26.2939 123.038C24.4717 121.979 21.4958 121.979 19.66 123.038Z" fill="#008C07"/>
<path d="M18.2788 124.957L18.2783 122.86H27.6113L27.654 124.957H18.2788Z" fill="#008C07"/>
<path d="M19.66 120.599C17.8259 121.656 17.8165 123.381 19.6397 124.439C21.4624 125.499 24.4378 125.499 26.2715 124.439C28.1062 123.381 28.1171 121.656 26.2939 120.599C24.4717 119.538 21.4958 119.538 19.66 120.599Z" fill="#00A70F"/>
<path d="M19.6601 129.356C17.8259 130.413 17.8165 132.136 19.6393 133.196C21.462 134.255 24.4373 134.255 26.271 133.196C28.1057 132.136 28.1166 130.413 26.2929 129.356C24.4717 128.296 21.4964 128.296 19.6601 129.356Z" fill="#D5D5EF"/>
<path d="M25.4644 128.094L25.2148 135.883L26.763 135.063L26.2122 127.765L25.4644 128.094Z" fill="#E9E9FF"/>
<path d="M63.7331 128.751L54.682 122.129L53.3882 122.892L63.7331 128.751Z" fill="#D5D5EF"/>
<path d="M44.0854 150.364V128.306L53.5445 133.811V155.826L44.0854 150.364Z" fill="#D5D5EF"/>
<path d="M53.5444 155.826L63.733 150.365V128.751L53.5444 133.811V155.826Z" fill="#B8B8D8"/>
<path d="M44.0854 128.306L49.6026 120.527L57.0081 124.839L53.5445 133.811L44.0854 128.306Z" fill="#E9E9FF"/>
<path d="M49.6025 120.527L56.8924 124.735L57.1738 122.01L49.961 118.196L49.6025 120.527Z" fill="#D5D5EF"/>
<path d="M63.733 128.751L57.1737 124.898L53.5444 133.811L63.733 128.751Z" fill="#D5D5EF"/>
<path d="M57.1737 122.01L56.8923 124.906L53.5444 133.812L53.9946 133.587L57.3097 124.976L57.6078 121.793L57.1737 122.01Z" fill="#B8B8D8"/>
<path d="M63.3029 128.964L57.0078 125.319L57.1735 124.898L63.7328 128.751L63.3029 128.964Z" fill="#B8B8D8"/>
<path d="M49.9609 118.196L57.1737 122.01L57.6077 121.793L50.3882 117.956L49.9609 118.196Z" fill="#E9E9FF"/>
<path d="M33.2524 153.236V169.293L68.8154 148.692L72.1127 130.665L33.2524 153.236Z" fill="#F05A00"/>
<path d="M33.4038 150.374V155.29L72.1859 132.895L73.0431 127.358L33.4038 150.374Z" fill="#FF7400"/>
<path opacity="0.5" d="M38.646 153.557V162.683C38.646 162.683 38.646 164.102 39.2718 164.239C40.192 164.441 40.8204 163.801 40.9012 161.688C40.9445 160.529 40.8392 156.542 40.8048 153.631C40.7949 152.795 40.0003 152.238 39.3625 152.655C38.7247 153.073 38.646 153.557 38.646 153.557Z" fill="#F05A00"/>
<path opacity="0.5" d="M42.9731 151.113V160.24C42.9731 160.24 42.9731 161.658 43.599 161.795C44.5192 161.999 45.1481 161.358 45.2278 159.245C45.2716 158.085 45.1663 154.099 45.132 151.188C45.1221 150.35 44.3269 149.795 43.6891 150.212C43.0508 150.63 42.9731 151.113 42.9731 151.113Z" fill="#F05A00"/>
<path opacity="0.5" d="M47.4009 148.667V157.793C47.4009 157.793 47.4009 159.211 48.0267 159.348C48.9474 159.551 49.5759 158.911 49.6556 156.798C49.6994 155.638 49.5941 151.652 49.5597 148.74C49.5498 147.904 48.7552 147.348 48.1168 147.765C47.479 148.183 47.4009 148.667 47.4009 148.667Z" fill="#F05A00"/>
<path opacity="0.5" d="M51.644 146.089V155.216C51.644 155.216 51.644 156.634 52.2704 156.771C53.1906 156.974 53.819 156.334 53.8993 154.221C53.943 153.062 53.8378 149.076 53.8034 146.164C53.7935 145.328 52.9983 144.772 52.361 145.189C51.7217 145.606 51.644 146.089 51.644 146.089Z" fill="#F05A00"/>
<path opacity="0.5" d="M55.9106 143.705V152.831C55.9106 152.831 55.9106 154.249 56.5365 154.387C57.4567 154.589 58.0856 153.95 58.1653 151.835C58.2086 150.676 58.1033 146.69 58.0695 143.779C58.0596 142.942 57.2644 142.385 56.6271 142.804C55.9888 143.221 55.9106 143.705 55.9106 143.705Z" fill="#F05A00"/>
<path opacity="0.5" d="M60.0972 141.154V150.281C60.0972 150.281 60.0972 151.698 60.723 151.836C61.6432 152.039 62.2721 151.399 62.3519 149.286C62.3962 148.126 62.2899 144.141 62.256 141.229C62.2461 140.393 61.4514 139.836 60.8131 140.253C60.1753 140.671 60.0972 141.154 60.0972 141.154Z" fill="#F05A00"/>
<path opacity="0.5" d="M64.125 139.042V148.168C64.125 148.168 64.125 149.586 64.7508 149.724C65.671 149.926 66.3 149.286 66.3797 147.173C66.4235 146.014 66.3177 142.027 66.2838 139.116C66.2739 138.278 65.4793 137.723 64.841 138.14C64.2032 138.557 64.125 139.042 64.125 139.042Z" fill="#F05A00"/>
<path d="M72.9915 127.429L33.4038 150.374V148.747L71.4517 126.549L72.9915 127.429Z" fill="#FFA500"/>
<path d="M33.2524 169.293L11.3786 156.96L8.90039 140.264L33.2524 153.236V169.293Z" fill="#FF7400"/>
<path d="M33.4041 155.29L7.47799 140.155L6.99756 135.438L33.4041 150.374V155.29Z" fill="#F59300"/>
<path d="M26.8377 153.029V161.312C26.8377 161.312 26.8377 162.598 26.2697 162.723C25.4344 162.907 24.8638 162.326 24.7914 160.409C24.7513 159.357 24.8472 155.739 24.8784 153.099C24.8873 152.339 25.6084 151.834 26.1874 152.213C26.7668 152.591 26.8377 153.029 26.8377 153.029Z" fill="#F05A00"/>
<path d="M30.844 155.167V163.45C30.844 163.45 30.844 164.737 30.276 164.86C29.4413 165.045 28.8702 164.463 28.7983 162.547C28.7581 161.495 28.8535 157.877 28.8853 155.237C28.8941 154.476 29.6153 153.972 30.1942 154.351C30.7731 154.729 30.844 155.167 30.844 155.167Z" fill="#F05A00"/>
<path d="M22.9659 150.866V159.148C22.9659 159.148 22.9659 160.435 22.3979 160.559C21.5631 160.744 20.9926 160.162 20.9201 158.245C20.8805 157.194 20.9759 153.576 21.0071 150.934C21.0165 150.175 21.7372 149.67 22.3166 150.049C22.895 150.427 22.9659 150.866 22.9659 150.866Z" fill="#F05A00"/>
<path d="M19.1671 148.552V156.833C19.1671 156.833 19.1671 158.12 18.5991 158.245C17.7643 158.429 17.1938 157.848 17.1208 155.93C17.0812 154.879 17.1766 151.261 17.2083 148.62C17.2172 147.86 17.9389 147.355 18.5173 147.735C19.0957 148.113 19.1671 148.552 19.1671 148.552Z" fill="#F05A00"/>
<path d="M15.5124 146.634V154.915C15.5124 154.915 15.5124 156.202 14.9444 156.327C14.1091 156.511 13.5391 155.93 13.4667 154.013C13.4265 152.961 13.5229 149.343 13.5537 146.702C13.5625 145.943 14.2837 145.438 14.8626 145.817C15.4415 146.195 15.5124 146.634 15.5124 146.634Z" fill="#F05A00"/>
<path d="M33.4041 150.374V148.747L8.56964 134.761L6.99756 135.438L33.4041 150.374Z" fill="#FFA500"/>
<path d="M124.345 53.7573C122.511 56.9791 123.947 59.2129 123.974 61.143C123.985 62.0872 122.187 64.4883 122.259 64.8275C122.307 65.0287 124.366 65.706 124.42 66.3027C124.519 67.4235 124.376 67.5371 124.574 68.2823C124.94 69.647 125.703 71.0273 127.545 71.5916C129.385 72.1664 132.942 71.5583 132.942 71.5583L133.229 78.1499C133.229 78.1499 138.633 80.7094 143.336 77.2276C143.336 77.2276 142.966 75.3126 142.761 74.3429C142.132 71.3774 143.285 55.5841 143.285 55.5841C143.285 55.5841 125.998 50.8564 124.345 53.7573Z" fill="#FAC1AC"/>
<path d="M96.2642 69.2608C95.1621 68.2604 94.1293 67.8607 94.3987 66.9327C94.7661 65.6633 95.171 64.2132 95.7728 63.5045C96.3726 62.7979 96.5336 62.6286 97.4325 62.9891C98.3344 63.3487 98.5549 63.8625 99.4417 64.53C100.328 65.1996 103.341 67.7752 103.484 68.4709C103.626 69.1644 101.674 71.7985 101.674 71.7985C101.674 71.7985 97.7529 70.612 96.2642 69.2608Z" fill="#FAC1AC"/>
<path d="M146.308 96.1992C151.587 95.4374 151.456 90.828 151.184 87.6869C150.987 85.3832 150.621 79.7447 147.219 79.2205C143.708 78.6801 129.699 78.3081 121.121 73.8461C119.09 72.7883 111.335 69.4529 108.105 67.8761C107.718 67.5947 104.417 66.6839 103.124 66.7964C99.9081 67.0747 99.4902 70.0157 99.6527 71.8728C99.6798 72.1828 109.323 80.0391 111.308 81.7941C119.155 88.7166 128.939 94.5406 133.898 95.4786C138.097 96.2748 143.456 96.5092 146.308 96.1992Z" fill="#F59300"/>
<path d="M93.1657 59.6957C92.8614 60.3606 94.0453 61.372 94.7831 62.3401C95.3948 63.1431 96.4359 64.8866 96.4359 64.8866L98.0476 63.5162L96.0066 61.409C96.0066 61.409 94.7852 60.1261 94.3761 60.0297C94.2912 60.0088 93.3069 59.3882 93.1657 59.6957Z" fill="#FAC1AC"/>
<path d="M130.697 213.557C130.697 213.557 129.883 211.794 129.57 210.876C129.255 209.964 127.369 192.816 127.369 192.816C127.369 192.816 120.286 196.37 121.886 207.158C121.932 207.467 122.415 209.999 122.578 210.527C122.742 211.06 121.921 211.458 121.632 211.773C121.342 212.087 121.566 213.448 121.87 213.877C122.171 214.307 125.171 216.059 126.143 215.994C127.114 215.932 128.49 215.506 129.07 215.13C129.65 214.751 130.697 213.557 130.697 213.557Z" fill="#FAC1AC"/>
<path d="M127.497 219.138C125.515 219.362 123.935 218.656 123.076 217.831C122.283 217.067 120.794 216.527 120.42 216.391C118.888 215.826 118.23 215.939 116.703 215.541C114.313 215.062 113.321 214.87 112.775 214.148C112.628 214.462 112.545 214.793 112.583 215.125C112.6 215.291 112.656 215.447 112.723 215.6L112.716 215.605C112.716 215.605 112.724 215.611 112.725 215.611C113.214 216.733 114.091 216.886 116.921 217.455C118.447 217.85 119.105 217.742 120.636 218.304C121.008 218.443 122.5 218.983 123.293 219.744C124.151 220.569 125.732 221.277 127.714 221.051C130.176 220.775 132.039 219.397 131.879 217.977C131.84 217.642 131.672 217.346 131.436 217.078C130.876 218.091 129.36 218.93 127.497 219.138Z" fill="#221F4F"/>
<path d="M130.696 213.557C130.416 212.818 130.227 212.362 130.176 212.24C130.172 212.257 130.164 212.27 130.158 212.284C130.163 212.297 130.169 212.308 130.169 212.32C130.292 213.407 128.859 214.465 126.968 214.681C126.206 214.767 125.497 214.697 124.907 214.514C123.223 214.366 121.934 213.604 121.813 212.54C121.749 211.982 122.031 211.434 122.531 210.961C122.526 210.961 122.522 210.956 122.519 210.955L122.459 210.914L122.456 210.918C122.296 210.828 122.121 210.752 121.936 210.69C121.919 210.683 121.306 210.254 121.306 210.254C119.052 208.809 117.594 208.445 116.973 208.401C113.262 208.118 112.325 210.856 112.545 212.836C112.604 213.361 112.774 214.149 112.774 214.149C112.774 214.149 112.994 214.853 115.085 215.44C116.142 215.737 118.411 215.909 118.654 215.926V215.931L118.661 215.929C118.671 215.929 118.701 215.931 118.701 215.931C118.701 215.931 118.702 215.923 118.702 215.92C119.049 216.099 119.468 216.289 119.976 216.466C121.574 217.033 122.96 217.865 122.96 217.865L123.433 218.158C123.705 218.369 124.069 218.601 124.493 218.739C125.393 219.028 126.849 219.464 127.415 219.398C127.981 219.333 129.028 219.15 129.569 218.923C130.111 218.695 130.473 218.454 130.823 218.114C131.174 217.775 131.435 217.08 131.435 217.08C131.435 217.08 131.029 214.42 130.696 213.557Z" fill="#6A77E0"/>
<path d="M147.914 208.554C147.914 208.554 147.1 206.793 146.787 205.876C146.472 204.962 145.797 200.664 145.797 200.664L139.043 200.716C139.043 200.716 138.809 202.058 139.104 202.155C139.398 202.259 139.633 204.998 139.796 205.527C139.96 206.056 139.14 206.458 138.849 206.772C138.559 207.087 138.786 208.448 139.088 208.877C139.39 209.306 142.389 211.06 143.36 210.993C144.332 210.931 145.708 210.506 146.288 210.129C146.867 209.751 147.914 208.554 147.914 208.554Z" fill="#FAC1AC"/>
<path d="M144.715 214.138C142.732 214.361 141.15 213.655 140.294 212.83C139.5 212.068 138.01 211.527 137.637 211.389C136.105 210.825 135.446 210.939 133.921 210.541C131.53 210.061 130.539 209.868 129.993 209.147C129.843 209.463 129.761 209.792 129.798 210.122C129.818 210.29 129.873 210.446 129.94 210.601L129.933 210.605L129.941 210.609C130.43 211.73 131.308 211.887 134.138 212.453C135.664 212.85 136.321 212.741 137.852 213.304C138.226 213.441 139.717 213.982 140.509 214.742C141.367 215.57 142.949 216.276 144.93 216.051C147.391 215.773 149.256 214.397 149.096 212.978C149.058 212.641 148.89 212.346 148.652 212.077C148.092 213.088 146.575 213.928 144.715 214.138Z" fill="#221F4F"/>
<path d="M147.914 208.554C147.632 207.819 147.447 207.362 147.393 207.24C147.39 207.254 147.382 207.269 147.376 207.283C147.38 207.294 147.386 207.306 147.387 207.318C147.51 208.406 146.078 209.464 144.187 209.68C143.424 209.764 142.715 209.694 142.125 209.514C140.44 209.367 139.151 208.603 139.032 207.538C138.968 206.981 139.249 206.435 139.749 205.958C139.745 205.958 139.74 205.954 139.736 205.953L139.678 205.914L139.674 205.919C139.513 205.827 139.338 205.75 139.153 205.687C139.138 205.682 138.524 205.251 138.524 205.251C136.269 203.807 134.812 203.444 134.191 203.398C130.481 203.116 129.546 205.856 129.763 207.834C129.822 208.362 129.994 209.148 129.994 209.148C129.994 209.148 130.213 209.85 132.304 210.44C133.361 210.735 135.629 210.907 135.874 210.923L135.872 210.929L135.879 210.926C135.89 210.926 135.919 210.929 135.919 210.929C135.919 210.929 135.919 210.921 135.919 210.918C136.268 211.095 136.686 211.285 137.194 211.465C138.791 212.03 140.178 212.863 140.178 212.863L140.653 213.157C140.924 213.368 141.289 213.599 141.712 213.735C142.611 214.026 144.068 214.461 144.632 214.398C145.199 214.333 146.245 214.148 146.786 213.919C147.328 213.692 147.692 213.451 148.041 213.112C148.39 212.773 148.653 212.077 148.653 212.077C148.653 212.077 148.245 209.419 147.914 208.554Z" fill="#6A77E0"/>
<path d="M153.751 130.711C153.307 124.774 145.388 119.929 135.076 119.929C124.764 119.929 116.47 124.757 116.402 130.711C116.246 144.715 112.277 154.067 111.367 162.022C110.458 169.982 113.151 180.207 116.237 187.711C118.72 193.744 120.646 207.948 120.923 208.307C120.924 208.309 120.926 208.312 120.926 208.314C120.969 208.568 122.764 210.203 125.426 209.993C128.15 209.778 130.37 208.714 130.37 207.137C130.37 207.137 129.997 197.71 129.093 189.3C128.189 180.892 127.17 172.251 127.17 172.251C127.17 172.251 128.447 160.982 133.574 153.968C133.665 153.841 135.077 152.188 135.077 151.83C134.52 166.869 135.11 171.772 137.022 184.217C137.714 188.72 137.809 204.625 137.809 204.625C137.809 206.199 140.024 207.476 142.751 207.476C144.983 207.476 146.846 206.619 147.461 205.446L147.483 205.449C147.476 205.446 147.469 205.446 147.462 205.446C147.6 205.183 147.695 204.912 147.695 204.625C147.695 204.208 147.558 202.349 147.512 201.578C146.886 191.163 150.798 169.472 151.432 164.962C152.139 159.922 152.228 160.308 152.755 152.494C152.898 150.348 154.085 135.189 153.751 130.711Z" fill="#4849D3"/>
<path opacity="0.2" d="M140.111 173.471C141.727 185.686 141.441 205.062 137.898 205.829C137.789 201.164 137.382 186.555 137.021 184.215C135.107 171.769 134.516 166.87 135.075 151.831C135.075 152.181 133.724 153.767 133.576 153.958C134.637 151.618 139.717 149.019 141.068 149.019C144.814 149.018 138.046 157.866 140.111 173.471Z" fill="#221F4F"/>
<path d="M151.651 120.223C149.459 116.09 148.765 109.021 149.918 102.337C150.364 99.7477 154.821 95.4118 150.363 82.6679C147.903 75.6365 143.392 75.6365 143.392 75.6365C141.794 75.0628 137.552 76.1961 137.532 76.1961C130.962 76.1961 126.816 78.6644 123.37 82.0369C122.174 83.2671 121.097 84.7506 120.224 86.5442C118.574 89.9332 118.081 94.8261 118.798 101.797C119.512 108.772 115.221 132.743 115.221 132.743C115.221 132.743 115.495 135.058 118.162 137.443C121.521 140.832 127.83 143.122 135.076 143.122C145.839 143.122 154.568 138.083 154.568 131.868C154.568 131.16 153.765 124.209 151.651 120.223Z" fill="#FFA500"/>
<path opacity="0.5" d="M127.583 113.268C124.805 124.046 121.262 133.075 116.318 135.328C115.351 133.851 115.22 132.741 115.22 132.741C115.22 132.741 119.512 108.773 118.801 101.796C118.139 95.4083 118.5 90.7713 119.834 87.4301C120.009 87.4358 120.207 87.5703 120.354 87.4796C128.091 82.668 134.024 88.28 127.583 113.268Z" fill="#F59300"/>
<path d="M110.944 124.83C110.944 124.83 116.635 96.9771 120.361 86.5316C120.883 85.0658 122.757 82.055 124.558 81.0723C127.534 79.4501 129.628 81.0723 129.628 81.0723L128.358 81.784C128.358 81.784 127.926 81.5115 126.627 81.4167C125.965 81.3682 125.28 81.6168 124.424 82.3208C122.772 83.6787 121.466 85.6494 120.736 87.4815C119.919 89.5366 112.427 123.937 112.427 123.937L110.944 124.83Z" fill="#4849D3"/>
<path d="M110.549 125.016L128.877 135.728L127.369 155.772L104.619 142.637L110.549 125.016Z" fill="#00A70F"/>
<path d="M130.991 153.464L127.369 155.772L128.877 135.727L130.923 134.344L130.991 153.464Z" fill="#008C07"/>
<path d="M130.923 134.344L112.719 123.677L110.548 125.017L128.877 135.728L130.923 134.344Z" fill="#221F4F"/>
<path d="M110.541 125.007L128.868 135.719L129.171 135.514L110.807 124.843L110.541 125.007Z" fill="#47476D"/>
<path d="M112.444 123.833L130.604 134.545L130.914 134.335L112.711 123.668L112.444 123.833Z" fill="#47476D"/>
<path d="M128.546 135.53L130.675 134.194L130.915 134.334L128.952 135.662L128.546 135.53Z" fill="#47476D"/>
<path d="M110.558 125.007L112.729 123.668L112.993 123.823L110.86 125.184L110.558 125.007Z" fill="#47476D"/>
<path d="M113.247 136.766L115.869 128.125C115.869 128.125 117.272 126.477 117.789 126.604C118.903 126.877 124.558 130.613 124.558 130.613C124.558 130.613 123.079 131.197 122.736 132.139C122.373 133.137 122.373 133.137 120.356 140.935L113.247 136.766Z" fill="#008C07"/>
<path d="M116.173 137.016C116.173 137.016 114.845 139.66 115.022 140.139C115.2 140.617 115.983 140.964 116.369 140.754C116.754 140.543 117.79 137.997 117.79 137.997L116.173 137.016Z" fill="#221F4F"/>
<path d="M129.171 137.155C129.171 137.155 132.194 99.2841 132.499 94.7148C132.797 90.2299 131.511 86.5209 130.991 85.1812C130.176 83.0849 128.091 81.456 128.091 81.456L129.629 81.073C129.629 81.073 134.894 82.668 133.899 96.3317C133.387 103.365 130.596 136.333 130.596 136.333L129.171 137.155Z" fill="#4849D3"/>
<path d="M90.2968 116.409C90.2968 116.409 86.4888 117.92 85.1543 117.735C83.8188 117.549 79.571 117.146 78.9775 115.173C78.6331 114.028 78.2287 113.626 78.7211 112.942C79.324 112.105 81.9424 112.926 84.9683 111.41C85.8682 110.96 86.5044 110.649 86.5044 110.649C86.5044 110.649 85.7791 109.446 85.4581 109.004C85.1403 108.559 85.0496 107.576 85.2366 107.46C85.4248 107.342 86.3085 107.401 86.754 107.746C88.3152 108.956 89.1343 110.407 89.7382 110.626C90.3416 110.845 92.0966 109.688 92.2363 109.37C92.3754 109.053 94.6358 115.065 94.6358 115.065L90.2968 116.409Z" fill="#FAC1AC"/>
<path d="M131.743 94.7149C132.991 90.0481 130.643 82.7353 128.09 81.4561C126.219 80.5171 123.025 81.651 121.009 84.0286C118.927 86.4819 110.406 98.0857 102.897 102.591C101.119 103.655 96.6457 106.786 93.7564 108.284C93.3713 108.484 91.3829 109.194 90.99 109.516C90.954 109.539 90.9306 109.554 90.9306 109.554C90.9306 109.554 88.9828 110.476 88.5899 111.584C87.2247 115.431 90.1735 116.876 90.459 116.882C90.459 116.882 102.147 113.588 104.442 112.887C113.503 110.112 121.148 105.921 124.784 103.152C127.829 100.834 130.369 99.8579 131.743 94.7149Z" fill="#FFA500"/>
<path d="M125.855 49.1149C121.116 51.6598 122.328 56.1901 126.196 58.4375C132.762 62.3252 137.72 70.356 142.344 67.8924C150.772 63.4012 145.073 50.7917 141.204 48.5438C137.337 46.2948 129.751 46.8659 125.855 49.1149Z" fill="#221F4F"/>
<path d="M158.883 92.8386C158.575 90.9315 157.826 89.1004 157.228 87.2741C156.583 85.3034 155.88 83.3712 155.011 81.4865C153.386 77.963 151.217 74.8631 148.604 72.006C147.508 70.806 144.28 66.6144 143.155 66.4743C143.029 66.4586 142.952 66.5436 142.931 66.6431C142.66 66.6077 142.398 66.6384 142.155 66.7452C141.743 66.8036 141.332 66.9229 140.986 67.0167C140.851 67.0527 140.728 67.1475 140.72 67.2997C140.714 67.4284 140.716 67.5529 140.72 67.678C140.529 71.5793 139.504 75.381 139.351 79.2881C139.229 82.3713 139.567 85.4868 140.598 88.4038C141.729 91.6032 143.955 93.8344 146.625 95.8197C148.106 96.9202 149.736 97.8035 151.195 98.9269C152.575 99.9894 156.649 103.634 156.719 103.437C157.98 99.8789 159.505 96.705 158.883 92.8386Z" fill="#221F4F"/>
<path d="M140.423 68.3364L140.596 69.3124L144.746 67.6262L143.967 66.7888C143.967 66.7888 142.989 67.3349 142.585 67.5465C142.098 67.8002 140.423 68.3364 140.423 68.3364Z" fill="#00A70F"/>
</svg>
