<svg width="180" height="246" viewBox="0 0 180 246" fill="none" xmlns="http://www.w3.org/2000/svg">
<path d="M41.4165 84.9719L0.000976562 109.034L43.2477 134.131L84.8293 110.226L41.4165 84.9719Z" fill="#E9E9FF"/>
<path d="M84.8292 110.226V156.147L43.2476 180.483V134.13L84.8292 110.226Z" fill="#B8B8D8"/>
<path d="M0.000976562 109.034V111.657L43.2477 136.843V134.131L0.000976562 109.034Z" fill="#777793"/>
<path d="M40.9976 132.823V179.185L43.2477 180.483V134.131L40.9976 132.823Z" fill="#777793"/>
<path d="M40.721 188.045L0 164.372V111.658L42.1219 136.031L40.721 188.045Z" fill="#B8B8D8"/>
<path d="M72.6514 206.514L122.497 177.687L122.043 90.804L72.3276 112.578L72.6514 206.514Z" fill="#9B9BBA"/>
<path d="M72.6509 116.646L40.7554 97.9636V188.099L72.6509 206.514V116.646Z" fill="#777793"/>
<path d="M80.0354 70.1096L39.2056 93.4559L74.6938 113.944L115.084 90.3445L80.0354 70.1096Z" fill="#E9E9FF"/>
<path d="M82.0236 100.893L107.754 86.1124L87.3663 74.3423L61.7002 89.1613L82.0236 100.893Z" fill="#47476D"/>
<path d="M83.5898 94.1856L96.9478 86.1273L86.095 80.043L72.6514 87.87L83.5898 94.1856Z" fill="#221F4F"/>
<path d="M61.7003 89.1614L82.0236 100.893L74.6938 113.944L39.2056 93.4559L61.7003 89.1614Z" fill="#9B9BBA"/>
<path d="M62.5962 89.709C57.4332 92.7103 57.4162 97.5769 62.5668 100.57C67.7298 103.57 76.1572 103.57 81.3515 100.57C81.3872 100.55 81.4161 100.528 81.4512 100.507L62.5962 89.709Z" fill="#ABABCE"/>
<path d="M63.1294 93.6678L74.0916 99.9874L75.3179 99.2997L64.3817 92.967L63.1294 93.6678Z" fill="#47476D"/>
<path d="M39.2056 93.4558V97.2316L74.6938 117.971V113.944L39.2056 93.4558Z" fill="#47476D"/>
<path d="M115.084 90.3445L74.6938 113.944V117.97L118.857 92.5238L115.084 90.3445Z" fill="#777793"/>
<path d="M80.0024 11.5176V70.0567L160.226 116.374V57.8359L80.0024 11.5176Z" fill="#B8B8D8"/>
<path d="M160.149 202.786L160.226 57.8359L170.289 51.9375V196.766L160.149 202.786Z" fill="#D5D5EF"/>
<path d="M89.9782 5.875L80.0024 11.5177L160.226 57.836L170.288 51.9376L89.9782 5.875Z" fill="#E9E9FF"/>
<path d="M118.823 92.4709V180.442L160.225 202.786V116.374L118.823 92.4709Z" fill="#B8B8D8"/>
<path d="M153.407 88.4642V99.4576L139.524 91.4417V80.5691L153.407 88.4642Z" fill="#777793"/>
<path d="M151.596 92.3057V93.7837L140.969 87.8298V86.2429L151.596 92.3057Z" fill="#47476D"/>
<path d="M151.596 93.1398L140.969 87.1995" stroke="#221F4F" stroke-width="0.283466" stroke-miterlimit="10"/>
<path d="M153.407 75.588V86.5814L139.524 78.565V67.6924L153.407 75.588Z" fill="#777793"/>
<path d="M151.596 79.4293V80.9073L140.969 74.9528V73.366L151.596 79.4293Z" fill="#47476D"/>
<path d="M151.596 80.2629L140.969 74.3237" stroke="#221F4F" stroke-width="0.283466" stroke-miterlimit="10"/>
<path d="M126.909 84.9256L117.834 79.7399L127.252 74.1692L135.939 79.4864L126.909 84.9256Z" fill="#47476D"/>
<path d="M126.862 63.8762L127.092 74.2794L117.835 79.7395L117.787 73.0186L122.629 66.3191L126.862 63.8762Z" fill="#221F4F"/>
<path d="M126.715 63.8027L126.862 63.8764L122.629 66.3194L122.479 66.2173L126.715 63.8027Z" fill="#9B9BBA"/>
<path d="M117.786 73.0185L122.629 66.3191L122.479 66.217L117.64 72.9233L117.786 73.0185Z" fill="#9B9BBA"/>
<path d="M117.835 79.7396L117.786 73.0186L117.64 72.9233V79.629L117.835 79.7396Z" fill="#9B9BBA"/>
<path d="M124.691 66.5772L126.912 65.343L134.959 69.6279L132.481 71.0577L124.691 66.5772Z" fill="#D5D5EF"/>
<path d="M120.135 79.2089L127.698 83.5755L132.595 71.1234L124.691 66.5771L120.135 79.2089Z" fill="#B8B8D8"/>
<path d="M130.811 71.4201L124.963 68.0854L123.735 71.2523L129.288 74.4192L130.811 71.4201Z" fill="#A8EB57"/>
<path d="M128.071 75.134L126.872 74.4441L126.435 75.6415L127.612 76.3337L128.071 75.134Z" fill="#777793"/>
<path d="M126.435 74.1992L125.235 73.5093L124.798 74.7055L125.974 75.3983L126.435 74.1992Z" fill="#777793"/>
<path d="M124.834 73.2541L123.636 72.5647L123.198 73.7615L124.377 74.4537L124.834 73.2541Z" fill="#777793"/>
<path d="M127.433 76.7379L126.234 76.0491L125.796 77.2453L126.974 77.9369L127.433 76.7379Z" fill="#777793"/>
<path d="M125.796 75.8024L124.597 75.113L124.161 76.3098L125.338 77.0015L125.796 75.8024Z" fill="#777793"/>
<path d="M124.196 74.858L122.998 74.1692L122.562 75.366L123.738 76.0576L124.196 74.858Z" fill="#777793"/>
<path d="M126.803 78.351L125.603 77.6616L125.166 78.859L126.342 79.5506L126.803 78.351Z" fill="#777793"/>
<path d="M125.165 77.4152L123.967 76.7258L123.53 77.9238L124.706 78.6148L125.165 77.4152Z" fill="#777793"/>
<path d="M123.567 76.4712L122.368 75.7812L121.93 76.9786L123.106 77.6703L123.567 76.4712Z" fill="#777793"/>
<path d="M126.182 79.9457L124.984 79.2568L124.547 80.4542L125.725 81.1447L126.182 79.9457Z" fill="#83CE17"/>
<path d="M124.547 79.0106L123.348 78.3201L122.912 79.518L124.087 80.2096L124.547 79.0106Z" fill="#FFA500"/>
<path d="M122.948 78.0662L121.749 77.3762L121.312 78.5742L122.488 79.2652L122.948 78.0662Z" fill="#F05A00"/>
<path d="M135.939 69.0618V79.4859L126.91 84.9251L126.862 78.2041L131.707 71.5047L135.939 69.0618Z" fill="#47476D"/>
<path d="M135.792 68.9875L135.939 69.0618L131.707 71.5047L131.556 71.4027L135.792 68.9875Z" fill="#E9E9FF"/>
<path d="M126.862 78.2041L131.708 71.5046L131.557 71.4026L126.717 78.1094L126.862 78.2041Z" fill="#E9E9FF"/>
<path d="M126.91 84.925L126.862 78.204L126.717 78.1094V84.8139L126.91 84.925Z" fill="#9B9BBA"/>
<path d="M108.849 53.0547V86.7106L86.6744 73.8843L86.6035 40.7449L108.849 53.0547Z" fill="#9B9BBA"/>
<path d="M102.236 65.5944V82.1624L91.3145 75.8678V59.2896L102.236 65.5944Z" fill="#221F4F"/>
<path d="M102.236 68.0005L91.3145 61.8651V59.2896L102.236 65.5944V68.0005Z" fill="#F05A00"/>
<path d="M106.519 68.0667V76.3382L104.575 75.2168V66.9453L106.519 68.0667Z" fill="#221F4F"/>
<path d="M95.678 73.3411C95.8141 73.2776 95.8356 73.0344 95.7256 72.798C95.6157 72.5616 95.4155 72.4221 95.2795 72.4851C95.1434 72.5491 95.1213 72.7918 95.2307 73.0282C95.3413 73.2646 95.5414 73.4041 95.678 73.3411Z" fill="#F05A00"/>
<path d="M95.9952 72.3007C96.1319 72.2372 96.1528 71.9946 96.0429 71.7576C95.9329 71.5218 95.7333 71.3817 95.5972 71.4452C95.4612 71.5087 95.4391 71.7514 95.5491 71.9883C95.659 72.2236 95.8586 72.3642 95.9952 72.3007Z" fill="#F05A00"/>
<path d="M96.6288 73.4573C96.7655 73.3932 96.787 73.15 96.6764 72.9142C96.567 72.6778 96.3669 72.5377 96.2303 72.6012C96.0948 72.6647 96.0732 72.9079 96.1826 73.1443C96.2938 73.3802 96.4928 73.5208 96.6288 73.4573Z" fill="#F05A00"/>
<path d="M97.0294 72.4548C97.1655 72.3919 97.187 72.1481 97.077 71.9117C96.9687 71.6759 96.7675 71.5353 96.6308 71.5987C96.4948 71.6622 96.4738 71.9049 96.5832 72.1419C96.6943 72.3777 96.8928 72.5183 97.0294 72.4548Z" fill="#F05A00"/>
<path d="M97.6645 73.7844C97.8006 73.7209 97.8216 73.4777 97.7121 73.2413C97.6027 73.0049 97.4031 72.8649 97.2665 72.9284C97.1299 72.9924 97.1089 73.2351 97.2189 73.4715C97.3277 73.7073 97.5279 73.8474 97.6645 73.7844Z" fill="#F05A00"/>
<path d="M96.1536 74.4993C96.2896 74.4358 96.3112 74.192 96.2018 73.9562C96.0918 73.7198 95.8916 73.5797 95.7556 73.6432C95.6195 73.7067 95.598 73.9499 95.708 74.1863C95.8174 74.4222 96.0164 74.5622 96.1536 74.4993Z" fill="#F05A00"/>
<path d="M97.1381 74.6707C97.2742 74.6072 97.2952 74.3634 97.1863 74.1276C97.0763 73.8911 96.8762 73.7511 96.7395 73.8146C96.604 73.8781 96.5825 74.1219 96.6919 74.3577C96.8013 74.5936 97.002 74.7336 97.1381 74.6707Z" fill="#F05A00"/>
<path d="M116.564 36.7394V69.8244L80.7471 49.1455V16.0605L116.564 36.7394Z" fill="#ABABCE"/>
<path d="M114.092 37.5633V66.0839L83.2188 48.2584V19.7395L114.092 37.5633Z" fill="#221F4F"/>
<path d="M118.354 68.7897L116.563 69.8243V36.7393L118.353 35.7058L118.354 68.7897Z" fill="#D5D5EF"/>
<path d="M82.517 15.0083L118.353 35.7058L116.564 36.7394L80.7471 16.0605L82.517 15.0083Z" fill="#E9E9FF"/>
<path opacity="0.3" d="M83.2183 19.7395L114.092 66.0839V37.5633L83.2183 19.7395Z" fill="#553098"/>
<path opacity="0.3" d="M72.7188 157.819L92.9066 194.603L118.813 179.538L118.737 131.991L72.7188 157.819Z" fill="#777793"/>
<path d="M118.833 128.29L72.7192 154.915L133.566 190.224L180 163.53L118.833 128.29Z" fill="#E9E9FF"/>
<path d="M180 163.53V214.812L133.566 241.989V190.224L180 163.53Z" fill="#B8B8D8"/>
<path d="M72.7192 154.915V157.819L133.566 193.255V190.224L72.7192 154.915Z" fill="#777793"/>
<path d="M131.053 188.766V240.538L133.566 241.989V190.224L131.053 188.766Z" fill="#777793"/>
<path d="M124.52 33.1675V18.192L120.53 15.71V30.8623L124.52 33.1675Z" fill="#777793"/>
<path d="M124.503 33.1364L127.788 31.3092V16.1653L124.519 18.2159L124.503 33.1364Z" fill="#9B9BBA"/>
<path d="M124.661 13.6527V27.3617L112.7 20.5064V6.85352L124.661 13.6527Z" fill="#83CE17"/>
<path d="M136.394 20.5319L124.661 27.3617V13.6528L136.301 6.8269L136.394 20.5319Z" fill="#A8EB57"/>
<path d="M124.661 0L112.7 6.85364L124.661 13.6528L136.301 6.82699L124.661 0Z" fill="#C9FF7B"/>
<path d="M136.644 169.972L139.528 120.786L110.078 103.937L106.736 153.575L136.644 169.972Z" fill="#F78028"/>
<path d="M152.736 161.017L148.487 115.475L143.019 116.688L139.528 120.786L136.644 169.972L145.826 162.073L152.736 161.017Z" fill="#F05A00"/>
<path d="M119.034 98.625L148.486 115.475L143.019 116.688L139.527 120.786L110.078 103.937L116.454 102.266L119.034 98.625Z" fill="#415C71"/>
<path fill-rule="evenodd" clip-rule="evenodd" d="M133.928 119.623C134.386 123.404 133.444 126.586 131.088 127.948C127.16 130.215 120.825 126.59 116.938 119.852C114.602 115.804 113.693 111.564 114.177 108.324L113.141 107.731C112.659 111.277 113.684 115.881 116.217 120.269C120.5 127.692 127.477 131.683 131.802 129.186C134.36 127.71 135.413 124.296 134.964 120.218L133.928 119.623Z" fill="#415C71"/>
<path d="M143.302 181.152L140.67 136.297L167.528 120.931L170.576 166.199L143.302 181.152Z" fill="#A8EB57"/>
<path d="M128.627 172.984L132.503 131.453L137.487 132.56L140.67 136.297L143.301 181.152L134.928 173.948L128.627 172.984Z" fill="#83CE17"/>
<path d="M159.362 116.088L132.503 131.453L137.487 132.56L140.671 136.297L167.528 120.931L161.713 119.409L159.362 116.088Z" fill="#415C71"/>
<path d="M162.273 126.214L161.739 126.521C161.978 126.965 162.207 127.424 162.426 127.895C165.938 135.442 166.387 143.772 160.986 146.472C156.688 148.623 149.488 143.12 145.976 135.57C145.965 135.548 145.275 135.938 145.275 135.938C145.391 136.209 145.511 136.478 145.637 136.748C149.599 145.267 156.799 150.311 161.716 148.026C166.629 145.738 167.401 136.978 163.438 128.463C163.076 127.683 162.685 126.934 162.273 126.214Z" fill="#415C71"/>
<path d="M112.076 174.378L114.412 134.535L90.5543 120.885L87.8472 161.096L112.076 174.378Z" fill="#83CE17"/>
<path d="M125.109 167.552L121.667 130.662L117.24 131.644L114.412 134.964L112.076 174.807L119.513 168.408L125.109 167.552Z" fill="#A8EB57"/>
<path d="M97.8092 117.012L121.667 130.662L117.24 131.644L114.412 134.964L90.5542 121.314L95.7189 119.961L97.8092 117.012Z" fill="#415C71"/>
<path fill-rule="evenodd" clip-rule="evenodd" d="M109.873 134.02C110.243 137.084 109.482 139.661 107.574 140.765C104.391 142.601 99.2605 139.665 96.1112 134.208C94.2171 130.929 93.4806 127.493 93.873 124.869L93.0345 124.388C92.6444 127.261 93.4738 130.99 95.5267 134.545C98.9958 140.557 104.648 143.79 108.151 141.768C110.222 140.572 111.076 137.807 110.711 134.504L109.873 134.02Z" fill="#415C71"/>
<path d="M80.1079 104.995C80.1079 104.995 82.9998 102.8 84.9824 101.992C86.9797 101.191 88.8336 100.286 90.8881 98.6186C91.8666 97.8249 94.4536 93.4215 92.3905 90.8958C91.5134 89.8215 89.5502 92.3103 88.0841 93.328C86.3555 94.5282 85.0896 95.0543 85.0896 95.0543C85.0896 95.0543 85.2885 94.2957 85.2885 92.7758C85.2885 91.4588 84.3905 90.6322 81.8348 96.1292C79.6952 100.73 75.6133 99.7524 75.6133 99.7524L80.1079 104.995Z" fill="#B27343"/>
<path opacity="0.2" d="M91.8468 95.2333C89.2095 97.3741 86.83 98.5357 84.2658 99.5641C82.2628 100.38 79.5444 102.294 78.4746 103.075L80.1204 104.995C80.1204 104.995 83.0123 102.8 84.9955 101.992C86.9928 101.191 88.8461 100.286 90.9 98.6179C91.5866 98.0612 93.0589 95.7294 93.1683 93.5144C92.6819 94.3353 92.1875 94.9561 91.8468 95.2333Z" fill="#FAC1AC"/>
<path d="M25.8027 236.506L26.6594 237.079C26.6594 237.079 28.6663 237.36 30.9544 236.791C33.2499 236.22 35.8255 236.359 35.3952 238.51C34.9643 240.655 31.2436 242.374 29.6686 243.095C28.0937 243.807 23.1982 246.173 20.765 245.601C18.3306 245.031 18.3839 243.659 18.3436 242.911C18.2228 240.696 18.3901 235.788 18.3901 235.788L25.8027 236.506Z" fill="#221F4F"/>
<path d="M18.3172 206.802C18.5088 198.057 20.9024 191.561 20.9024 191.561C20.9024 191.561 20.4545 157.985 19.4828 149.494C18.5088 141.002 20.3406 135.238 21.0492 132.668C21.1757 129.954 22.8662 129.429 22.8662 129.429L45.7748 133.677L41.1515 168.145C38.0855 182.189 37.3332 198.957 34.2644 202.86C28.9982 209.557 28.518 233.475 27.7526 239.756C27.7526 239.756 24.2836 242.003 21.4262 241.631C17.4197 241.108 17.4849 239.603 17.4849 237.007C17.4849 237.007 18.1227 215.549 18.3172 206.802Z" fill="#415C71"/>
<path opacity="0.2" d="M27.9677 192.438C33.2158 167.303 15.1222 141.971 27.8498 130.354L22.8653 129.429C22.8653 129.429 21.1748 129.955 21.0483 132.669C20.3397 135.238 18.7052 143.149 19.6792 151.642C20.6509 160.132 20.9015 191.562 20.9015 191.562C20.9015 191.562 18.5079 198.058 18.3163 206.803C18.1224 215.549 17.4835 237.007 17.4835 237.007C17.4835 239.604 17.4183 241.109 21.4248 241.631C23.6245 241.918 26.1802 240.655 27.2432 240.057C17.9217 221.851 23.684 212.95 27.9677 192.438Z" fill="#415C71"/>
<path d="M64.2919 230.458L65.2053 231.063C65.2053 231.063 67.3403 231.367 69.7719 230.759C72.2159 230.15 74.9576 230.304 74.5012 232.586C74.0369 234.876 70.0814 236.702 68.4045 237.466C66.7297 238.224 63.619 239.315 60.0037 239.369C56.6792 239.419 56.356 238.648 56.1757 237.833C55.6666 235.527 57.5868 229.807 57.5868 229.807L64.2919 230.458Z" fill="#221F4F"/>
<path d="M26.7133 130.735C26.7133 130.735 23.3321 140.193 27.8001 148.93C31.408 155.987 60.5908 191.515 60.5908 191.515C60.5908 191.515 57.0237 206.887 56.4023 213.631C55.7816 220.377 56.8196 225.058 55.9119 231.202C55.9119 231.202 54.9289 234.664 56.4023 234.959C58.7744 235.435 63.214 234.672 64.7447 233.766C66.276 232.86 71.2112 200.489 74.551 196.224C77.8335 192.036 76.622 189.066 74.551 182.452C72.4805 175.839 54.9799 133.805 54.9799 133.805L26.7133 130.735Z" fill="#415C71"/>
<path opacity="0.2" d="M60.9384 217.447C61.651 209.71 72.5423 196.362 71.9692 189.931C70.6641 175.305 49.7908 145.439 45.6511 137.343C43.6889 133.508 29.1817 134.421 29.1358 130.998L26.7133 130.735C26.7133 130.735 23.3321 140.193 27.8001 148.93C31.408 155.987 60.5908 191.515 60.5908 191.515C60.5908 191.515 57.0237 206.887 56.4023 213.631C55.7816 220.377 56.8196 225.058 55.912 231.202C55.912 231.202 54.9289 234.664 56.4023 234.959C58.5896 235.398 62.5314 234.783 64.3326 233.974C64.8031 228.14 60.3176 224.199 60.9384 217.447Z" fill="#415C71"/>
<path d="M43.4847 73.336C46.8896 74.734 52.225 77.2155 56.117 80.8994C59.9988 84.5765 58.4324 95.0767 58.844 100.605C59.255 106.125 56.6267 136.758 56.6267 136.758C56.6267 136.758 45.6407 141.091 39.0921 140.481C32.5457 139.864 23.0683 136.111 19.9995 130.59C19.9995 130.59 20.9049 107.108 20.3125 99.4823C19.5511 89.6869 20.6152 79.5977 21.7026 75.7165C22.5399 72.7243 28.8533 67.0782 35.6026 70.3556C35.6026 70.3556 41.5361 72.5355 43.4847 73.336Z" fill="#F78028"/>
<path opacity="0.4" d="M47.6731 128.916C34.5141 131.434 24.6795 109.734 23.3779 89.6875C22.8194 81.0866 23.7968 75.5023 27.7597 70.0723C24.5446 71.3252 22.1913 73.9716 21.7026 75.7172C20.6152 79.599 19.5511 89.6875 20.3125 99.483C20.9049 107.108 19.9995 130.591 19.9995 130.591C23.0683 136.112 32.5457 139.865 39.0921 140.482C45.6401 141.091 56.6267 136.759 56.6267 136.759C56.6267 136.759 56.9969 132.864 57.5871 124.815C54.5149 128.001 53.1157 127.875 47.6731 128.916Z" fill="#F05A00"/>
<path d="M54.9624 79.9689C51.3068 79.4802 49.5607 82.9368 48.5107 84.8644C45.9601 89.5472 45.0643 101.732 45.6715 106.619C46.4057 112.531 47.302 117.176 51.3987 121.276C53.7973 123.676 55.175 123.672 59.5415 121.276C63.9074 118.878 82.331 104.808 82.331 104.808C82.331 104.808 83.2126 101.74 81.882 100.02C80.5514 98.2989 79.0309 97.7728 79.0309 97.7728L61.7945 106.776C61.7945 106.776 60.4582 88.8709 59.3799 86.195C58.3016 83.519 56.8537 80.2218 54.9624 79.9689Z" fill="#F78028"/>
<path d="M63.207 115.234C58.8405 117.63 57.4634 117.634 55.0642 115.234C50.9675 111.134 50.0712 106.489 49.337 100.577C48.8109 96.3436 49.4136 86.6338 51.2425 81.0693C49.9499 82.1476 49.1142 83.7572 48.511 84.8644C45.9598 89.5472 45.0652 101.732 45.6718 106.619C46.406 112.531 47.3018 117.176 51.399 121.276C53.7977 123.676 55.1753 123.672 59.5418 121.276C63.9078 118.878 82.3313 104.808 82.3313 104.808C82.3313 104.808 82.8404 103.029 82.4958 101.42C76.9336 105.617 66.3745 113.495 63.207 115.234Z" fill="#F05A00"/>
<path d="M53.3773 46.4053C54.3779 55.2619 54.9052 55.3271 53.9652 60.4868C53.6976 61.9551 52.697 64.8 50.8062 65.5585C48.9167 66.3154 45.8439 65.5143 45.8439 65.5143V76.5831C45.8439 76.5831 39.4461 78.8825 35.0903 75.6669V71.3168V48.9287C35.0903 48.9287 42.5313 40.6776 53.3773 46.4053Z" fill="#B27343"/>
<path d="M52.9976 58.8092L55.839 57.5744L53.8831 50.5461L52.9976 58.8092Z" fill="#B27343"/>
<path d="M53.7515 44.3819C52.4311 37.0504 24.4491 34.2951 29.1847 54.356C30.6655 60.6285 36.307 64.4037 36.307 64.4037C36.307 64.4037 43.4651 61.3014 43.3903 58.8098C43.1419 50.5422 44.7242 48.4332 46.4035 48.071C48.4286 47.6344 54.6915 49.6045 53.7515 44.3819Z" fill="#5B3C29"/>
<path d="M45.5977 56.6924C45.5977 58.506 44.346 59.9767 42.8011 59.9767C41.2567 59.9767 40.0044 58.506 40.0044 56.6924C40.0044 54.8783 41.2573 53.4082 42.8011 53.4082C44.346 53.4082 45.5977 54.8788 45.5977 56.6924Z" fill="#B27343"/>
</svg>
